<svg width="27" height="28" viewBox="0 0 27 28" fill="none" xmlns="http://www.w3.org/2000/svg">
<path d="M17.5006 13.4442C17.64 13.5717 17.7194 13.752 17.7194 13.9409C17.7194 14.1298 17.64 14.3101 17.5006 14.4376L13.575 18.0267C13.3007 18.2774 12.875 18.2584 12.6243 17.9841C12.3735 17.7098 12.3925 17.2841 12.6668 17.0333L15.3131 14.6139L5.38194 14.6139C5.01028 14.6139 4.70898 14.3126 4.70898 13.9409C4.70898 13.5692 5.01028 13.2679 5.38194 13.2679L15.3131 13.2679L12.6668 10.8485C12.3925 10.5977 12.3735 10.172 12.6243 9.89772C12.875 9.62343 13.3007 9.60437 13.575 9.85515L17.5006 13.4442Z" fill="#266CA8"/>
<path d="M16.1492 21.3434C15.7775 21.3434 15.4763 21.6447 15.4763 22.0164C15.4763 22.388 15.7775 22.6893 16.1492 22.6893L16.1985 22.6893C17.4255 22.6893 18.4146 22.6893 19.1925 22.5848C20.0002 22.4762 20.6802 22.2439 21.2203 21.7038C21.7604 21.1637 21.9927 20.4837 22.1012 19.676C22.2058 18.8981 22.2058 17.9091 22.2058 16.682L22.2058 11.1999C22.2058 9.97275 22.2058 8.98367 22.1012 8.20576C21.9927 7.39812 21.7604 6.7181 21.2203 6.17801C20.6802 5.63793 20.0002 5.40563 19.1925 5.29705C18.4146 5.19246 17.4255 5.19248 16.1984 5.19249L16.1492 5.19249C15.7775 5.19249 15.4763 5.49379 15.4763 5.86545C15.4763 6.23711 15.7775 6.5384 16.1492 6.5384C17.4372 6.5384 18.3354 6.53983 19.0132 6.63096C19.6716 6.71947 20.0203 6.88138 20.2686 7.12972C20.5169 7.37805 20.6788 7.7267 20.7673 8.3851C20.8585 9.06285 20.8599 9.96113 20.8599 11.2491L20.8599 16.6327C20.8599 17.9207 20.8585 18.819 20.7673 19.4967C20.6788 20.1551 20.5169 20.5038 20.2686 20.7521C20.0203 21.0004 19.6716 21.1623 19.0132 21.2509C18.3354 21.342 17.4372 21.3434 16.1492 21.3434Z" fill="#266CA8"/>
</svg>
