<svg width="50" height="50" viewBox="0 0 50 50" fill="none" xmlns="http://www.w3.org/2000/svg">
<path fill-rule="evenodd" clip-rule="evenodd" d="M19.5529 14.6189L14.4493 21.524C12.3081 24.421 11.2375 25.8695 11.8274 27.0084C11.8372 27.0273 11.8472 27.046 11.8576 27.0646C12.4825 28.1862 14.3316 28.1862 18.0297 28.1862C20.0847 28.1862 21.1123 28.1862 21.7568 28.7923L21.7902 28.8244L28.2434 21.2078L28.21 21.1757C27.5791 20.5565 27.5791 19.5692 27.5791 17.5947V17.0786C27.5791 11.6042 27.5791 8.867 26.0402 8.3954C24.5013 7.92379 22.8518 10.1555 19.5529 14.6189Z" fill="#266CA8"/>
<path opacity="0.5" d="M22.4211 32.4053L22.4211 32.9212C22.421 38.3957 22.421 41.1329 23.9599 41.6045C25.4989 42.0761 27.1484 39.8444 30.4474 35.381L35.551 28.476C37.6922 25.579 38.7628 24.1305 38.1729 22.9915C38.1631 22.9727 38.1531 22.954 38.1427 22.9354C37.5178 21.8138 35.6687 21.8138 31.9706 21.8138C29.9156 21.8138 28.8881 21.8138 28.2435 21.2076L21.7903 28.8242C22.4212 29.4435 22.4212 30.4308 22.4211 32.4053Z" fill="#266CA8"/>
</svg>
