<svg width="50" height="50" viewBox="0 0 50 50" fill="none" xmlns="http://www.w3.org/2000/svg">
<path opacity="0.5" d="M41.6666 31.667V30.0004C41.6666 25.2863 41.6662 22.9301 40.2017 21.4656C38.7373 20.0011 36.3803 20.0011 31.6662 20.0011H18.3329C13.6188 20.0011 11.2618 20.0011 9.79734 21.4656C8.33325 22.9297 8.33325 25.2851 8.33325 29.9967V30.0004V31.667C8.33325 36.3811 8.33325 38.7381 9.79772 40.2026C11.2622 41.667 13.6192 41.667 18.3332 41.667H31.6666H31.6666C36.3806 41.667 38.7377 41.667 40.2021 40.2026C41.6666 38.7381 41.6666 36.3811 41.6666 31.667Z" fill="#266CA8"/>
<path fill-rule="evenodd" clip-rule="evenodd" d="M25 7.08337C24.3096 7.08337 23.75 7.64302 23.75 8.33337L23.75 26.621L20.949 23.3532C20.4998 22.8291 19.7106 22.7684 19.1865 23.2176C18.6623 23.6669 18.6016 24.456 19.0509 24.9802L24.0509 30.8135C24.2884 31.0906 24.6351 31.25 25 31.25C25.3649 31.25 25.7116 31.0906 25.949 30.8135L30.949 24.9802C31.3983 24.456 31.3376 23.6669 30.8135 23.2176C30.2893 22.7684 29.5002 22.8291 29.0509 23.3532L26.25 26.621L26.25 8.33337C26.25 7.64302 25.6903 7.08337 25 7.08337Z" fill="#266CA8"/>
</svg>
