<svg width="40" height="40" viewBox="0 0 40 40" fill="none" xmlns="http://www.w3.org/2000/svg">
<path fill-rule="evenodd" clip-rule="evenodd" d="M8.22836 10.8956C6.66626 12.4577 6.66626 14.9718 6.66626 20.0002C6.66626 25.0285 6.66626 27.5426 8.22836 29.1047C9.79045 30.6668 12.3046 30.6668 17.3329 30.6668H22.6663C27.6946 30.6668 30.2087 30.6668 31.7708 29.1047C33.3329 27.5426 33.3329 25.0285 33.3329 20.0002C33.3329 14.9718 33.3329 12.4577 31.7708 10.8956C30.2087 9.3335 27.6946 9.3335 22.6663 9.3335H17.3329C12.3046 9.3335 9.79045 9.3335 8.22836 10.8956ZM28.7678 14.0266C29.1214 14.4509 29.0641 15.0815 28.6398 15.4351L25.7111 17.8756C24.5293 18.8605 23.5714 19.6587 22.726 20.2025C21.8454 20.7689 20.9877 21.1267 19.9996 21.1267C19.0115 21.1267 18.1538 20.7689 17.2732 20.2025C16.4277 19.6587 15.4699 18.8605 14.2881 17.8756L11.3594 15.4351C10.9351 15.0815 10.8778 14.4509 11.2314 14.0266C11.5849 13.6024 12.2155 13.545 12.6398 13.8986L15.5183 16.2974C16.7622 17.334 17.6259 18.0514 18.355 18.5203C19.0608 18.9743 19.5395 19.1267 19.9996 19.1267C20.4597 19.1267 20.9383 18.9743 21.6441 18.5203C22.3733 18.0514 23.2369 17.334 24.4809 16.2974L27.3594 13.8986C27.7837 13.545 28.4142 13.6024 28.7678 14.0266Z" fill="#266CA8"/>
</svg>
