<svg width="50" height="50" viewBox="0 0 50 50" fill="none" xmlns="http://www.w3.org/2000/svg">
<path opacity="0.5" d="M33.333 39.434C25.3615 44.0364 15.1683 41.3051 10.5659 33.3336C5.96355 25.362 8.6948 15.1689 16.6663 10.5665C24.6379 5.96411 34.8311 8.69537 39.4334 16.6669C44.0358 24.6385 41.3046 34.8316 33.333 39.434Z" fill="#266CA8"/>
<path d="M32.1424 25C32.1424 25.6904 31.5827 26.25 30.8924 26.25L26.2498 26.25L26.2498 30.8925C26.2498 31.5829 25.6902 32.1425 24.9998 32.1425C24.3095 32.1425 23.7498 31.5829 23.7498 30.8925L23.7498 26.25H19.1073C18.417 26.25 17.8573 25.6904 17.8573 25C17.8573 24.3096 18.417 23.75 19.1073 23.75L23.7498 23.75L23.7498 19.1075C23.7498 18.4171 24.3095 17.8575 24.9998 17.8575C25.6902 17.8575 26.2498 18.4171 26.2498 19.1075L26.2498 23.75L30.8924 23.75C31.5827 23.75 32.1424 24.3096 32.1424 25Z" fill="#266CA8"/>
</svg>
