<svg width="46" height="46" viewBox="0 0 46 46" fill="none" xmlns="http://www.w3.org/2000/svg">
<rect x="0.445099" y="0.910156" width="45" height="45" rx="14" fill="#1D1D23"/>
<rect x="0.945099" y="1.41016" width="44" height="44" rx="13.5" stroke="white" stroke-opacity="0.04"/>
<path d="M18.9763 33.7096C19.9857 34.9925 21.5712 35.8193 23.3542 35.8193C25.1372 35.8193 26.7228 34.9926 27.7321 33.7096C24.8259 34.1033 21.8825 34.1033 18.9763 33.7096Z" fill="#A8E543"/>
<path d="M31.4532 20.2193V21.0643C31.4532 22.0782 31.7425 23.0695 32.2848 23.9132L33.6138 25.9807C34.8276 27.8692 33.9009 30.436 31.7898 31.0332C26.2669 32.5954 20.4415 32.5954 14.9186 31.0332C12.8075 30.436 11.8808 27.8692 13.0946 25.9807L14.4236 23.9132C14.9659 23.0695 15.2552 22.0782 15.2552 21.0643V20.2193C15.2552 15.5801 18.8813 11.8193 23.3542 11.8193C27.8271 11.8193 31.4532 15.5801 31.4532 20.2193Z" fill="#A8E543"/>
</svg>
