<svg width="317" height="341" viewBox="0 0 317 341" fill="none" xmlns="http://www.w3.org/2000/svg">
<path d="M315.645 284.771C323.29 269.642 301.441 193.998 149.948 193.998C40.6004 193.998 -9.58719 255.914 1.50829 287.292" fill="url(#paint0_radial_458_1499)"/>
<mask id="mask0_458_1499" style="mask-type:luminance" maskUnits="userSpaceOnUse" x="0" y="193" width="317" height="95">
<path d="M315.645 284.771C323.29 269.642 301.441 193.998 149.948 193.998C40.6004 193.998 -9.58719 255.914 1.50829 287.292" fill="white"/>
</mask>
<g mask="url(#mask0_458_1499)">
<ellipse opacity="0.671968" cx="126.583" cy="236.418" rx="8.33142" ry="4.62769" fill="#F5F5F5" fill-opacity="0.8"/>
<ellipse opacity="0.729957" cx="211.618" cy="229.354" rx="13.1451" ry="7.2192" fill="#F5F5F5" fill-opacity="0.8"/>
<ellipse opacity="0.729957" cx="62.0229" cy="210.102" rx="13.1451" ry="7.2192" fill="#F5F5F5" fill-opacity="0.8"/>
</g>
<g opacity="0.320685">
<ellipse cx="245.847" cy="67.8256" rx="8.88685" ry="8.88517" fill="#F5F5F5" fill-opacity="0.8"/>
<path d="M240.273 60.7801C236.459 60.2424 233.671 60.6639 233.148 62.1016C232.308 64.4073 237.61 68.4532 244.989 71.1386C252.369 73.8239 259.031 74.1318 259.871 71.8262C260.399 70.3754 257.978 68.3457 254.656 66.2894" stroke="#F5F5F5" stroke-opacity="0.8" stroke-width="4.44342"/>
<path d="M254.752 67.8256C254.752 62.9185 250.773 58.9404 245.865 58.9404C240.957 58.9404 237.883 62.0778 237.249 65.6154C237.249 65.6154 242.357 68.8135 244.716 69.5009C245.468 69.7201 246.214 70.0045 246.974 70.2567C247.823 70.5387 248.688 70.7874 249.563 71.0032C250.162 71.1508 250.984 71.3791 251.75 71.5216C252.761 71.7096 253.666 71.7936 253.738 71.7936C253.863 71.7936 254 71.2349 254.283 70.5838C254.566 69.9328 254.752 67.8256 254.752 67.8256Z" fill="#F5F5F5" fill-opacity="0.8"/>
</g>
<circle opacity="0.418364" cx="50.5924" cy="120.243" r="10.3623" fill="#F5F5F5" fill-opacity="0.8"/>
<ellipse opacity="0.5" cx="162.749" cy="208.627" rx="31.0869" ry="8.53365" fill="#F5F5F5" fill-opacity="0.8"/>
<path d="M150.831 32.9014L154.268 34.1522L90.6825 208.852C90.3371 209.801 89.2877 210.29 88.3387 209.945C87.3897 209.6 86.9004 208.55 87.2458 207.601L150.831 32.9014Z" fill="#F5F5F5" fill-opacity="0.8"/>
<path d="M150.745 32.9863L177.732 50.767C179.95 52.2287 182.428 53.2517 185.032 53.7808C199.121 56.6436 208.307 70.2824 205.664 84.4149L199.289 118.498C199.259 118.655 199.035 118.66 198.996 118.504C196.039 106.575 184.784 98.5446 172.548 99.6994C166.973 100.226 161.44 98.3444 157.341 94.5297L135.681 74.3718L150.745 32.9863Z" fill="#A8E543"/>
<circle cx="152.256" cy="32.3985" r="2.43819" transform="rotate(20 152.256 32.3985)" fill="#F5F5F5" fill-opacity="0.8"/>
<path d="M111.426 137.387C111.426 137.387 113.254 136.473 113.254 136.777C113.254 137.082 113.254 140.435 113.254 140.435L112.035 141.044L111.426 137.387Z" fill="#FFE9E9"/>
<path d="M146.059 198.432C146.059 198.432 145.445 196.191 143.827 196.045C142.209 195.9 137.652 200.721 136.699 202.711C135.746 204.702 138.349 207.492 141.319 204.81C144.29 202.129 146.059 198.432 146.059 198.432Z" fill="#A8E543"/>
<path d="M147.963 204.973L146.105 199.789C145.357 197.702 142.512 197.436 141.39 199.349C141.166 199.731 141.042 200.159 141.049 200.602C141.08 202.699 141.422 209.04 144.394 209.896C147.963 210.923 147.963 204.973 147.963 204.973Z" fill="#A8E543"/>
<path d="M170.905 198.432C170.905 198.432 171.52 196.191 173.138 196.045C174.755 195.9 179.313 200.721 180.265 202.711C181.218 204.702 178.616 207.492 175.645 204.81C172.674 202.129 170.905 198.432 170.905 198.432Z" fill="#A8E543"/>
<path d="M169.002 204.973L170.86 199.789C171.608 197.702 174.452 197.436 175.574 199.349C175.798 199.731 175.922 200.159 175.915 200.602C175.884 202.699 175.542 209.04 172.57 209.896C169.002 210.923 169.002 204.973 169.002 204.973Z" fill="#A8E543"/>
<path d="M148.486 189.404C148.486 189.404 147.467 191.406 147.467 192.814C146.447 195.097 144.768 198.17 141.859 204.579C139.953 208.778 143.39 209.892 145.987 210.16C147.608 210.328 149.162 209.656 150.422 208.623L158.201 202.247L167.459 209.891C169.138 211.278 171.568 211.268 173.236 209.868C174.952 208.429 175.4 205.922 174.411 203.912C173.3 201.654 171.65 198.116 169.388 192.814C169.388 191.421 168.498 190.085 168.498 190.085L148.486 189.404Z" fill="#A8E543"/>
<path d="M170.673 173.558C172.335 175.987 171.892 182.06 171.892 182.06H167.015L168.963 195.155C169.058 195.792 168.703 196.408 168.098 196.629C165.918 197.426 160.755 199.198 157.433 199.395C154.102 199.592 148.446 197.866 146.062 197.076C145.417 196.863 145.052 196.209 145.232 195.554C145.752 193.66 147.125 189.336 150.411 182.06C151.429 183.25 145.681 182.06 145.681 182.06C145.681 182.06 146.04 176.652 147.51 173.558C148.98 170.464 152.386 168.397 152.386 168.397L161 167.089C161 167.089 164.577 167.788 166.406 168.762C168.234 169.736 169.01 171.129 170.673 173.558Z" fill="#F5F5F5" fill-opacity="0.8"/>
<path d="M171.43 182.036L171.236 187.813L170.582 190.704L166.08 209.273L166.798 210.822L167.262 212.834L166.798 214.114L165.579 213.659L163.141 211.675L162.702 210.359C162.594 210.033 162.628 209.676 162.797 209.376L163.992 207.252L167.262 189.916L166.933 182.255L171.43 182.036Z" fill="#FDE7E6" fill-opacity="0.87"/>
<path d="M145.803 182.254L146.33 187.812L146.984 190.703L151.486 209.272L150.768 210.821L150.304 212.833L150.768 214.113L151.987 213.658L154.425 211.675L154.864 210.359C154.972 210.032 154.938 209.675 154.769 209.375L153.574 207.251L150.304 189.915L150.558 182.254L145.803 182.254Z" fill="#FDE7E6" fill-opacity="0.87"/>
<path fill-rule="evenodd" clip-rule="evenodd" d="M160.479 162.361H155.678V168.796H160.479V162.361ZM157.598 172.479C157.598 171.566 155.678 168.797 155.678 168.797H160.479C160.479 168.797 157.598 173.393 157.598 172.479Z" fill="#8BC63E" fill-opacity="0.08"/>
<ellipse cx="157.8" cy="161.296" rx="4.25693" ry="6.33929" fill="#FFE9E9"/>
<path fill-rule="evenodd" clip-rule="evenodd" d="M153.127 162.353C153.468 161.145 153.468 158.48 154.149 158.393C154.83 158.306 156.192 158.811 157.555 157.832C158.236 157.294 158.576 157.227 158.576 156.957C161.982 157.6 159.945 159.541 161.641 161.678C161.818 161.901 162.322 161.678 162.322 161.678C162.322 161.678 162.322 156.415 161.982 155.945C161.641 155.476 160.279 153.585 159.598 154.934C159.598 154.259 158.236 153.563 156.873 154.08C155.511 154.596 153.468 155.608 153.127 156.957C152.787 158.306 152.446 161.004 153.127 162.353Z" fill="#513450"/>
<path d="M60.4978 323.955V335.964H59.0509V321.288H60.2497L69.882 333.525V321.309H71.3289V335.964H69.9853L60.4978 323.955ZM79.1555 336.171C78.3839 336.171 77.6673 336.026 77.0059 335.736C76.3582 335.433 75.7932 335.027 75.3109 334.517C74.8424 333.993 74.4772 333.401 74.2154 332.739C73.9536 332.064 73.8227 331.354 73.8227 330.61C73.8227 329.839 73.9536 329.122 74.2154 328.461C74.4772 327.785 74.8493 327.193 75.3316 326.683C75.8139 326.159 76.3789 325.753 77.0265 325.464C77.688 325.16 78.4045 325.009 79.1762 325.009C79.9479 325.009 80.6576 325.16 81.3052 325.464C81.9529 325.753 82.5179 326.159 83.0002 326.683C83.4825 327.193 83.8545 327.785 84.1163 328.461C84.3782 329.122 84.5091 329.839 84.5091 330.61C84.5091 331.354 84.3782 332.064 84.1163 332.739C83.8545 333.401 83.4825 333.993 83.0002 334.517C82.5316 335.027 81.9667 335.433 81.3052 335.736C80.6576 336.026 79.941 336.171 79.1555 336.171ZM75.2489 330.631C75.2489 331.43 75.4212 332.161 75.7657 332.822C76.1239 333.47 76.5993 333.986 77.1919 334.372C77.7844 334.744 78.439 334.93 79.1555 334.93C79.8721 334.93 80.5266 334.737 81.1192 334.352C81.7117 333.966 82.1871 333.442 82.5454 332.781C82.9037 332.105 83.0828 331.375 83.0828 330.59C83.0828 329.79 82.9037 329.06 82.5454 328.399C82.1871 327.737 81.7117 327.214 81.1192 326.828C80.5266 326.442 79.8721 326.249 79.1555 326.249C78.439 326.249 77.7844 326.449 77.1919 326.848C76.6131 327.248 76.1446 327.779 75.7863 328.44C75.428 329.088 75.2489 329.818 75.2489 330.631ZM98.3912 336.067C97.2337 336.067 96.2553 335.861 95.4561 335.447C94.6569 335.034 94.023 334.483 93.5545 333.794C93.0859 333.091 92.7414 332.298 92.521 331.416C92.3143 330.535 92.2109 329.625 92.2109 328.688V321.288H93.6371V328.688C93.6371 329.446 93.7129 330.19 93.8645 330.92C94.0299 331.651 94.2917 332.305 94.65 332.884C95.0082 333.463 95.4905 333.924 96.0969 334.269C96.7032 334.6 97.4611 334.765 98.3706 334.765C99.3076 334.765 100.079 334.593 100.686 334.248C101.306 333.89 101.788 333.421 102.133 332.843C102.491 332.264 102.746 331.616 102.897 330.9C103.049 330.169 103.125 329.432 103.125 328.688V321.288H104.572V328.688C104.572 329.666 104.461 330.603 104.241 331.499C104.02 332.395 103.662 333.18 103.166 333.856C102.684 334.531 102.05 335.068 101.264 335.468C100.479 335.867 99.5212 336.067 98.3912 336.067ZM111.004 336.171C110.122 336.171 109.302 336.026 108.544 335.736C107.786 335.447 107.132 335.006 106.58 334.414L107.159 333.421C107.766 333.986 108.372 334.4 108.978 334.662C109.598 334.91 110.253 335.034 110.942 335.034C111.782 335.034 112.464 334.868 112.988 334.538C113.512 334.193 113.774 333.704 113.774 333.07C113.774 332.643 113.643 332.319 113.381 332.099C113.133 331.864 112.768 331.678 112.285 331.54C111.817 331.389 111.252 331.23 110.59 331.065C109.846 330.858 109.219 330.645 108.709 330.424C108.213 330.19 107.834 329.901 107.573 329.556C107.325 329.198 107.201 328.736 107.201 328.171C107.201 327.468 107.373 326.89 107.717 326.435C108.076 325.966 108.558 325.615 109.164 325.381C109.784 325.133 110.473 325.009 111.231 325.009C112.058 325.009 112.788 325.14 113.422 325.401C114.056 325.663 114.573 326.028 114.972 326.497L114.29 327.448C113.904 327.007 113.443 326.683 112.905 326.476C112.382 326.256 111.796 326.146 111.148 326.146C110.708 326.146 110.287 326.208 109.888 326.332C109.488 326.442 109.157 326.635 108.895 326.91C108.647 327.172 108.523 327.537 108.523 328.006C108.523 328.392 108.62 328.695 108.813 328.915C109.006 329.122 109.295 329.301 109.681 329.453C110.067 329.591 110.542 329.742 111.107 329.908C111.92 330.128 112.63 330.355 113.236 330.59C113.842 330.81 114.311 331.1 114.642 331.458C114.972 331.816 115.138 332.319 115.138 332.967C115.138 333.973 114.759 334.758 114.001 335.323C113.243 335.888 112.244 336.171 111.004 336.171ZM122.112 336.171C121.34 336.171 120.624 336.026 119.962 335.736C119.301 335.433 118.729 335.027 118.247 334.517C117.764 333.993 117.385 333.394 117.11 332.719C116.848 332.043 116.717 331.32 116.717 330.548C116.717 329.542 116.944 328.619 117.399 327.779C117.868 326.938 118.508 326.27 119.321 325.774C120.134 325.264 121.058 325.009 122.091 325.009C123.152 325.009 124.075 325.264 124.861 325.774C125.66 326.283 126.287 326.959 126.742 327.799C127.197 328.626 127.424 329.535 127.424 330.528C127.424 330.638 127.424 330.748 127.424 330.858C127.424 330.955 127.417 331.031 127.403 331.086H118.185C118.253 331.857 118.467 332.546 118.825 333.153C119.197 333.745 119.673 334.221 120.252 334.579C120.844 334.923 121.485 335.096 122.174 335.096C122.877 335.096 123.538 334.917 124.158 334.558C124.792 334.2 125.233 333.732 125.481 333.153L126.701 333.483C126.48 333.993 126.142 334.455 125.688 334.868C125.233 335.282 124.696 335.606 124.075 335.84C123.469 336.06 122.815 336.171 122.112 336.171ZM118.143 330.073H126.101C126.046 329.287 125.832 328.598 125.46 328.006C125.102 327.413 124.627 326.952 124.034 326.621C123.455 326.277 122.815 326.104 122.112 326.104C121.409 326.104 120.768 326.277 120.19 326.621C119.611 326.952 119.135 327.42 118.763 328.027C118.405 328.619 118.198 329.301 118.143 330.073ZM134.967 326.435C134.03 326.463 133.203 326.724 132.486 327.22C131.784 327.717 131.288 328.399 130.998 329.267V335.964H129.593V325.195H130.915V327.779C131.288 327.021 131.777 326.407 132.383 325.939C133.003 325.47 133.658 325.209 134.347 325.153C134.484 325.14 134.602 325.133 134.698 325.133C134.808 325.133 134.898 325.14 134.967 325.153V326.435ZM140.374 336.171C139.492 336.171 138.672 336.026 137.914 335.736C137.156 335.447 136.502 335.006 135.95 334.414L136.529 333.421C137.135 333.986 137.742 334.4 138.348 334.662C138.968 334.91 139.623 335.034 140.312 335.034C141.152 335.034 141.834 334.868 142.358 334.538C142.882 334.193 143.144 333.704 143.144 333.07C143.144 332.643 143.013 332.319 142.751 332.099C142.503 331.864 142.138 331.678 141.655 331.54C141.187 331.389 140.622 331.23 139.96 331.065C139.216 330.858 138.589 330.645 138.079 330.424C137.583 330.19 137.204 329.901 136.943 329.556C136.695 329.198 136.57 328.736 136.57 328.171C136.57 327.468 136.743 326.89 137.087 326.435C137.446 325.966 137.928 325.615 138.534 325.381C139.154 325.133 139.843 325.009 140.601 325.009C141.428 325.009 142.158 325.14 142.792 325.401C143.426 325.663 143.943 326.028 144.342 326.497L143.66 327.448C143.274 327.007 142.813 326.683 142.275 326.476C141.752 326.256 141.166 326.146 140.518 326.146C140.078 326.146 139.657 326.208 139.258 326.332C138.858 326.442 138.527 326.635 138.265 326.91C138.017 327.172 137.893 327.537 137.893 328.006C137.893 328.392 137.99 328.695 138.183 328.915C138.376 329.122 138.665 329.301 139.051 329.453C139.437 329.591 139.912 329.742 140.477 329.908C141.29 330.128 142 330.355 142.606 330.59C143.212 330.81 143.681 331.1 144.012 331.458C144.342 331.816 144.508 332.319 144.508 332.967C144.508 333.973 144.129 334.758 143.371 335.323C142.613 335.888 141.614 336.171 140.374 336.171ZM156.29 321.288H157.51L163.608 335.964H162.078L160.176 331.375H153.583L151.702 335.964H150.151L156.29 321.288ZM159.846 330.238L156.89 322.983L153.893 330.238H159.846ZM164.396 330.61C164.396 329.591 164.602 328.66 165.016 327.82C165.443 326.966 166.029 326.283 166.773 325.774C167.517 325.264 168.364 325.009 169.315 325.009C170.211 325.009 171.01 325.25 171.713 325.732C172.429 326.201 172.988 326.773 173.387 327.448V320.875H174.793V334.269C174.793 334.462 174.834 334.607 174.917 334.703C174.999 334.786 175.123 334.834 175.289 334.848V335.964C175.013 336.005 174.8 336.019 174.648 336.005C174.359 335.991 174.104 335.874 173.883 335.654C173.663 335.433 173.553 335.192 173.553 334.93V333.876C173.125 334.579 172.547 335.137 171.816 335.55C171.086 335.964 170.328 336.171 169.543 336.171C168.798 336.171 168.109 336.019 167.476 335.716C166.855 335.413 166.311 334.999 165.843 334.476C165.388 333.952 165.03 333.359 164.768 332.698C164.52 332.023 164.396 331.327 164.396 330.61ZM173.387 332.264V328.936C173.208 328.44 172.919 327.992 172.519 327.593C172.119 327.179 171.665 326.855 171.155 326.621C170.659 326.373 170.163 326.249 169.667 326.249C169.088 326.249 168.564 326.373 168.096 326.621C167.627 326.855 167.221 327.179 166.876 327.593C166.545 328.006 166.29 328.474 166.111 328.998C165.932 329.522 165.843 330.059 165.843 330.61C165.843 331.189 165.939 331.74 166.132 332.264C166.339 332.788 166.628 333.256 167 333.669C167.372 334.069 167.799 334.379 168.282 334.6C168.764 334.82 169.288 334.93 169.853 334.93C170.211 334.93 170.583 334.861 170.969 334.724C171.355 334.586 171.72 334.4 172.064 334.166C172.423 333.918 172.719 333.628 172.953 333.297C173.187 332.967 173.332 332.622 173.387 332.264ZM177.254 330.61C177.254 329.591 177.461 328.66 177.874 327.82C178.301 326.966 178.887 326.283 179.631 325.774C180.375 325.264 181.223 325.009 182.173 325.009C183.069 325.009 183.868 325.25 184.571 325.732C185.288 326.201 185.846 326.773 186.245 327.448V320.875H187.651V334.269C187.651 334.462 187.692 334.607 187.775 334.703C187.858 334.786 187.982 334.834 188.147 334.848V335.964C187.871 336.005 187.658 336.019 187.506 336.005C187.217 335.991 186.962 335.874 186.741 335.654C186.521 335.433 186.411 335.192 186.411 334.93V333.876C185.984 334.579 185.405 335.137 184.674 335.55C183.944 335.964 183.186 336.171 182.401 336.171C181.657 336.171 180.968 336.019 180.334 335.716C179.714 335.413 179.169 334.999 178.701 334.476C178.246 333.952 177.888 333.359 177.626 332.698C177.378 332.023 177.254 331.327 177.254 330.61ZM186.245 332.264V328.936C186.066 328.44 185.777 327.992 185.377 327.593C184.978 327.179 184.523 326.855 184.013 326.621C183.517 326.373 183.021 326.249 182.525 326.249C181.946 326.249 181.422 326.373 180.954 326.621C180.485 326.855 180.079 327.179 179.734 327.593C179.404 328.006 179.149 328.474 178.97 328.998C178.79 329.522 178.701 330.059 178.701 330.61C178.701 331.189 178.797 331.74 178.99 332.264C179.197 332.788 179.486 333.256 179.858 333.669C180.23 334.069 180.658 334.379 181.14 334.6C181.622 334.82 182.146 334.93 182.711 334.93C183.069 334.93 183.441 334.861 183.827 334.724C184.213 334.586 184.578 334.4 184.922 334.166C185.281 333.918 185.577 333.628 185.811 333.297C186.046 332.967 186.19 332.622 186.245 332.264ZM195.486 336.171C194.715 336.171 193.998 336.026 193.337 335.736C192.675 335.433 192.103 335.027 191.621 334.517C191.139 333.993 190.76 333.394 190.484 332.719C190.222 332.043 190.091 331.32 190.091 330.548C190.091 329.542 190.319 328.619 190.774 327.779C191.242 326.938 191.883 326.27 192.696 325.774C193.509 325.264 194.432 325.009 195.466 325.009C196.527 325.009 197.45 325.264 198.235 325.774C199.035 326.283 199.662 326.959 200.116 327.799C200.571 328.626 200.798 329.535 200.798 330.528C200.798 330.638 200.798 330.748 200.798 330.858C200.798 330.955 200.792 331.031 200.778 331.086H191.559C191.628 331.857 191.841 332.546 192.2 333.153C192.572 333.745 193.047 334.221 193.626 334.579C194.219 334.923 194.859 335.096 195.548 335.096C196.251 335.096 196.913 334.917 197.533 334.558C198.167 334.2 198.607 333.732 198.856 333.153L200.075 333.483C199.855 333.993 199.517 334.455 199.062 334.868C198.607 335.282 198.07 335.606 197.45 335.84C196.844 336.06 196.189 336.171 195.486 336.171ZM191.518 330.073H199.476C199.42 329.287 199.207 328.598 198.835 328.006C198.477 327.413 198.001 326.952 197.409 326.621C196.83 326.277 196.189 326.104 195.486 326.104C194.784 326.104 194.143 326.277 193.564 326.621C192.985 326.952 192.51 327.42 192.138 328.027C191.779 328.619 191.573 329.301 191.518 330.073ZM202.244 330.61C202.244 329.591 202.45 328.66 202.864 327.82C203.291 326.966 203.877 326.283 204.621 325.774C205.365 325.264 206.212 325.009 207.163 325.009C208.059 325.009 208.858 325.25 209.561 325.732C210.277 326.201 210.835 326.773 211.235 327.448V320.875H212.641V334.269C212.641 334.462 212.682 334.607 212.765 334.703C212.847 334.786 212.971 334.834 213.137 334.848V335.964C212.861 336.005 212.648 336.019 212.496 336.005C212.207 335.991 211.952 335.874 211.731 335.654C211.511 335.433 211.4 335.192 211.4 334.93V333.876C210.973 334.579 210.394 335.137 209.664 335.55C208.934 335.964 208.176 336.171 207.39 336.171C206.646 336.171 205.957 336.019 205.323 335.716C204.703 335.413 204.159 334.999 203.691 334.476C203.236 333.952 202.877 333.359 202.616 332.698C202.368 332.023 202.244 331.327 202.244 330.61ZM211.235 332.264V328.936C211.056 328.44 210.767 327.992 210.367 327.593C209.967 327.179 209.513 326.855 209.003 326.621C208.507 326.373 208.011 326.249 207.514 326.249C206.936 326.249 206.412 326.373 205.944 326.621C205.475 326.855 205.069 327.179 204.724 327.593C204.393 328.006 204.138 328.474 203.959 328.998C203.78 329.522 203.691 330.059 203.691 330.61C203.691 331.189 203.787 331.74 203.98 332.264C204.187 332.788 204.476 333.256 204.848 333.669C205.22 334.069 205.647 334.379 206.13 334.6C206.612 334.82 207.136 334.93 207.7 334.93C208.059 334.93 208.431 334.861 208.817 334.724C209.203 334.586 209.568 334.4 209.912 334.166C210.27 333.918 210.567 333.628 210.801 333.297C211.035 332.967 211.18 332.622 211.235 332.264ZM220.739 321.288L225.534 329.184L230.371 321.288H231.942L226.258 330.507V335.964H224.811V330.466L219.147 321.288H220.739ZM236.584 336.171C235.812 336.171 235.096 336.026 234.434 335.736C233.773 335.433 233.201 335.027 232.719 334.517C232.236 333.993 231.858 333.394 231.582 332.719C231.32 332.043 231.189 331.32 231.189 330.548C231.189 329.542 231.417 328.619 231.871 327.779C232.34 326.938 232.981 326.27 233.794 325.774C234.607 325.264 235.53 325.009 236.563 325.009C237.624 325.009 238.548 325.264 239.333 325.774C240.132 326.283 240.759 326.959 241.214 327.799C241.669 328.626 241.896 329.535 241.896 330.528C241.896 330.638 241.896 330.748 241.896 330.858C241.896 330.955 241.889 331.031 241.876 331.086H232.657C232.726 331.857 232.939 332.546 233.298 333.153C233.67 333.745 234.145 334.221 234.724 334.579C235.316 334.923 235.957 335.096 236.646 335.096C237.349 335.096 238.01 334.917 238.63 334.558C239.264 334.2 239.705 333.732 239.953 333.153L241.173 333.483C240.952 333.993 240.615 334.455 240.16 334.868C239.705 335.282 239.168 335.606 238.548 335.84C237.941 336.06 237.287 336.171 236.584 336.171ZM232.615 330.073H240.573C240.518 329.287 240.305 328.598 239.933 328.006C239.574 327.413 239.099 326.952 238.506 326.621C237.928 326.277 237.287 326.104 236.584 326.104C235.881 326.104 235.241 326.277 234.662 326.621C234.083 326.952 233.608 327.42 233.236 328.027C232.877 328.619 232.671 329.301 232.615 330.073ZM249.131 335.447C249.021 335.488 248.849 335.564 248.615 335.674C248.38 335.785 248.098 335.881 247.767 335.964C247.436 336.047 247.078 336.088 246.692 336.088C246.293 336.088 245.914 336.012 245.555 335.861C245.211 335.709 244.935 335.482 244.729 335.178C244.522 334.861 244.419 334.476 244.419 334.021V326.311H242.93V325.195H244.419V321.557H245.824V325.195H248.305V326.311H245.824V333.628C245.852 334.014 245.99 334.303 246.238 334.496C246.499 334.689 246.796 334.786 247.126 334.786C247.512 334.786 247.864 334.724 248.181 334.6C248.498 334.462 248.69 334.365 248.759 334.31L249.131 335.447ZM251.239 331.251V321.143H252.644V331.251H251.239ZM251.239 335.964V333.649H252.644V335.964H251.239ZM256.447 331.251V321.143H257.852V331.251H256.447ZM256.447 335.964V333.649H257.852V335.964H256.447Z" fill="white" fill-opacity="0.6"/>
<defs>
<radialGradient id="paint0_radial_458_1499" cx="0" cy="0" r="1" gradientUnits="userSpaceOnUse" gradientTransform="translate(137.469 226.353) rotate(-90) scale(54.2435 566.519)">
<stop stop-color="#EBEBEB" stop-opacity="0"/>
<stop offset="0.536775" stop-color="#EBEBEB" stop-opacity="0.1"/>
<stop offset="1" stop-color="#F5F5F5" stop-opacity="0"/>
</radialGradient>
</defs>
</svg>
