<svg width="54" height="40" viewBox="0 0 54 40" fill="none" xmlns="http://www.w3.org/2000/svg">
<rect x="0.61794" y="1.09211" width="51.907" height="37.3688" rx="5.56146" stroke="black" stroke-opacity="0.1" stroke-width="1.23588"/>
<path fill-rule="evenodd" clip-rule="evenodd" d="M26.6849 26.9518C25.0236 28.3849 22.869 29.25 20.5145 29.25C15.2598 29.25 11 24.9407 11 19.625C11 14.3093 15.2598 10 20.5145 10C22.869 10 25.0236 10.8651 26.6849 12.2982C28.3462 10.8651 30.5009 10 32.8553 10C38.11 10 42.3698 14.3093 42.3698 19.625C42.3698 24.9407 38.11 29.25 32.8553 29.25C30.5009 29.25 28.3462 28.3849 26.6849 26.9518Z" fill="#DA524A"/>
<path fill-rule="evenodd" clip-rule="evenodd" d="M26.6875 26.9508C28.7333 25.1854 30.0306 22.5585 30.0306 19.625C30.0306 16.6915 28.7333 14.0646 26.6875 12.2992C28.3489 10.8655 30.504 10 32.859 10C38.1137 10 42.3735 14.3093 42.3735 19.625C42.3735 24.9407 38.1137 29.25 32.859 29.25C30.504 29.25 28.3489 28.3845 26.6875 26.9508Z" fill="#F9A000"/>
<path fill-rule="evenodd" clip-rule="evenodd" d="M26.6879 26.9518C28.7344 25.1864 30.0321 22.559 30.0321 19.625C30.0321 16.691 28.7344 14.0636 26.6879 12.2982C24.6415 14.0636 23.3438 16.691 23.3438 19.625C23.3438 22.559 24.6415 25.1864 26.6879 26.9518Z" fill="#FF5E00"/>
</svg>
