<svg width="388" height="277" viewBox="0 0 388 277" fill="none" xmlns="http://www.w3.org/2000/svg">
<g clip-path="url(#clip0_980_270)">
<circle cx="195.594" cy="91.1231" r="52.4648" fill="white"/>
<circle opacity="0.4" cx="195.592" cy="91.1232" r="91.1232" stroke="#686B89" stroke-width="1.84087" stroke-dasharray="1.84 8.28"/>
<path opacity="0.5" d="M200.57 77.4814L199.892 108.316H195.205L194.526 77.4814H200.57ZM197.795 120.835C196.726 120.835 195.821 120.465 195.081 119.725C194.341 118.985 193.971 118.08 193.971 117.011C193.971 115.942 194.341 115.038 195.081 114.298C195.821 113.558 196.726 113.188 197.795 113.188C198.823 113.188 199.686 113.558 200.385 114.298C201.125 115.038 201.495 115.942 201.495 117.011C201.495 118.08 201.125 118.985 200.385 119.725C199.686 120.465 198.823 120.835 197.795 120.835Z" fill="#7277A7"/>
</g>
<g opacity="0.80882">
<ellipse cx="175.041" cy="226.427" rx="85.0626" ry="4.60218" fill="url(#paint0_linear_980_270)" fill-opacity="0.3" style="mix-blend-mode:multiply"/>
</g>
<path fill-rule="evenodd" clip-rule="evenodd" d="M95.3457 123.826C92.7676 118.298 95.1595 111.726 100.688 109.148L154.077 84.2524L158.03 92.729L166.752 99.6507L167 111.967L172.729 122.075L173.39 134.381L188.097 145.424L188.836 158.794L192.198 166.004L138.809 190.899C133.281 193.477 126.709 191.085 124.131 185.557L95.3457 123.826Z" fill="#266CA8"/>
<mask id="mask0_980_270" style="mask-type:luminance" maskUnits="userSpaceOnUse" x="94" y="84" width="99" height="108">
<path fill-rule="evenodd" clip-rule="evenodd" d="M95.3457 123.826C92.7676 118.298 95.1595 111.726 100.688 109.148L154.077 84.2524L158.03 92.729L166.752 99.6507L167 111.967L172.729 122.075L173.39 134.381L188.097 145.424L188.836 158.794L192.198 166.004L138.809 190.899C133.281 193.477 126.709 191.085 124.131 185.557L95.3457 123.826Z" fill="white"/>
</mask>
<g mask="url(#mask0_980_270)">
<g opacity="0.648947">
<circle cx="138.147" cy="169.88" r="7.36349" transform="rotate(-25 138.147 169.88)" fill="white" style="mix-blend-mode:overlay"/>
</g>
<g opacity="0.648947">
<circle cx="145.655" cy="166.379" r="7.36349" transform="rotate(-25 145.655 166.379)" fill="white" style="mix-blend-mode:overlay"/>
</g>
<rect x="99.2363" y="132.168" width="79.1575" height="14.727" transform="rotate(-25 99.2363 132.168)" fill="white" fill-opacity="0.37"/>
</g>
<path fill-rule="evenodd" clip-rule="evenodd" d="M238.822 121.602L288.874 144.941C294.402 147.519 296.794 154.091 294.216 159.62L265.431 221.35C262.853 226.879 256.281 229.271 250.753 226.693L200.701 203.353L204.328 195.575L213.865 187.226L213.081 176.803L213.101 166.96L221.024 159.77L226.552 147.915L234.937 142.037L234.969 129.865L238.822 121.602Z" fill="#266CA8"/>
<mask id="mask1_980_270" style="mask-type:luminance" maskUnits="userSpaceOnUse" x="200" y="121" width="96" height="107">
<path fill-rule="evenodd" clip-rule="evenodd" d="M238.822 121.602L288.874 144.941C294.402 147.519 296.794 154.091 294.216 159.62L265.431 221.35C262.853 226.879 256.281 229.271 250.753 226.693L200.701 203.353L204.328 195.575L213.865 187.226L213.081 176.803L213.101 166.96L221.024 159.77L226.552 147.915L234.937 142.037L234.969 129.865L238.822 121.602Z" fill="white"/>
</mask>
<g mask="url(#mask1_980_270)">
<rect x="230.266" y="139.954" width="66.2714" height="14.727" transform="rotate(25 230.266 139.954)" fill="white" fill-opacity="0.37"/>
<rect x="227.443" y="187.387" width="36.8174" height="4.60218" transform="rotate(25 227.443 187.387)" fill="white" fill-opacity="0.3"/>
<rect x="238.957" y="201.896" width="20.2496" height="4.60218" transform="rotate(25 238.957 201.896)" fill="white" fill-opacity="0.3"/>
</g>
<g opacity="0.5">
<path d="M312.478 143.058L321.373 138.258C322.305 137.755 322.649 136.601 322.14 135.68C321.63 134.759 320.462 134.421 319.529 134.924L310.634 139.724C309.702 140.227 309.359 141.382 309.868 142.302C310.377 143.223 311.546 143.562 312.478 143.058Z" fill="url(#paint1_linear_980_270)"/>
<path d="M303.935 132.64L310.109 124.637C310.756 123.798 310.6 122.604 309.76 121.97C308.921 121.336 307.716 121.502 307.068 122.341L300.895 130.344C300.248 131.183 300.403 132.377 301.243 133.011C302.083 133.645 303.288 133.479 303.935 132.64Z" fill="url(#paint2_linear_980_270)"/>
<path d="M314.472 154.878L324.576 155.168C325.635 155.199 326.509 154.371 326.529 153.319C326.548 152.267 325.705 151.389 324.646 151.359L314.543 151.068C313.484 151.038 312.609 151.866 312.59 152.918C312.57 153.97 313.413 154.847 314.472 154.878Z" fill="url(#paint3_linear_980_270)"/>
</g>
<g opacity="0.5">
<path d="M76.0977 106.244L67.3758 101.136C66.4614 100.601 66.1587 99.4353 66.6996 98.5329C67.2406 97.6306 68.4203 97.3331 69.3347 97.8686L78.0567 102.976C78.971 103.511 79.2737 104.677 78.7328 105.579C78.1919 106.482 77.0121 106.779 76.0977 106.244Z" fill="url(#paint4_linear_980_270)"/>
<path d="M84.9993 96.1301L79.1088 87.9167C78.4912 87.0556 78.6888 85.8677 79.55 85.2634C80.4112 84.659 81.6099 84.8671 82.2275 85.7282L88.118 93.9416C88.7355 94.8027 88.538 95.9906 87.6768 96.595C86.8156 97.1993 85.6168 96.9912 84.9993 96.1301Z" fill="url(#paint5_linear_980_270)"/>
<path d="M73.694 117.987L63.5868 117.924C62.5272 117.918 61.6822 117.06 61.6995 116.008C61.7168 114.956 62.5898 114.108 63.6494 114.115L73.7565 114.177C74.8161 114.184 75.6611 115.042 75.6438 116.094C75.6265 117.146 74.7535 117.993 73.694 117.987Z" fill="url(#paint6_linear_980_270)"/>
</g>
<path d="M43.5985 258.62V271.36H41.4907V254.732H43.2706L53.4349 267.73V254.755H55.5427V271.36H53.6223L43.5985 258.62ZM63.8508 271.594C62.9296 271.594 62.0943 271.43 61.3448 271.102C60.5954 270.759 59.9474 270.298 59.401 269.721C58.8545 269.127 58.4329 268.448 58.1363 267.683C57.8396 266.918 57.6913 266.114 57.6913 265.271C57.6913 264.412 57.8396 263.6 58.1363 262.835C58.4329 262.07 58.8545 261.399 59.401 260.821C59.9474 260.228 60.5954 259.767 61.3448 259.439C62.1099 259.096 62.9452 258.924 63.8508 258.924C64.7719 258.924 65.6073 259.096 66.3567 259.439C67.1061 259.767 67.7541 260.228 68.3006 260.821C68.8626 261.399 69.292 262.07 69.5887 262.835C69.8853 263.6 70.0336 264.412 70.0336 265.271C70.0336 266.114 69.8853 266.918 69.5887 267.683C69.292 268.448 68.8705 269.127 68.324 269.721C67.7775 270.298 67.1218 270.759 66.3567 271.102C65.6073 271.43 64.7719 271.594 63.8508 271.594ZM59.7991 265.294C59.7991 266.137 59.9787 266.902 60.3378 267.589C60.7125 268.276 61.2043 268.823 61.8132 269.229C62.4221 269.619 63.1013 269.814 63.8508 269.814C64.6002 269.814 65.2794 269.611 65.8883 269.205C66.5128 268.799 67.0047 268.253 67.3638 267.566C67.7385 266.863 67.9258 266.09 67.9258 265.247C67.9258 264.404 67.7385 263.639 67.3638 262.952C67.0047 262.265 66.5128 261.719 65.8883 261.313C65.2794 260.907 64.6002 260.704 63.8508 260.704C63.1013 260.704 62.4221 260.915 61.8132 261.336C61.2043 261.742 60.7125 262.289 60.3378 262.976C59.9787 263.663 59.7991 264.435 59.7991 265.294ZM81.71 271.594C80.6951 271.594 79.7427 271.43 78.8527 271.102C77.9628 270.759 77.1977 270.251 76.5576 269.58L77.3539 268.128C78.0565 268.784 78.7591 269.252 79.4617 269.533C80.1643 269.814 80.8825 269.955 81.6163 269.955C82.4594 269.955 83.1464 269.799 83.6773 269.486C84.2081 269.159 84.4735 268.682 84.4735 268.058C84.4735 267.605 84.333 267.269 84.052 267.051C83.7866 266.832 83.404 266.653 82.9044 266.512C82.4048 266.356 81.8115 266.184 81.1245 265.997C80.2814 265.747 79.571 265.482 78.9933 265.201C78.4156 264.919 77.9784 264.568 77.6817 264.147C77.3851 263.725 77.2368 263.194 77.2368 262.554C77.2368 261.773 77.4397 261.118 77.8457 260.587C78.2516 260.04 78.8059 259.627 79.5085 259.346C80.2267 259.064 81.0386 258.924 81.9442 258.924C82.8498 258.924 83.6695 259.064 84.4033 259.346C85.1371 259.627 85.7694 260.04 86.3003 260.587L85.3635 262.015C84.8795 261.516 84.3486 261.149 83.7709 260.915C83.1932 260.665 82.5453 260.54 81.8271 260.54C81.4055 260.54 80.9918 260.595 80.5858 260.704C80.1799 260.798 79.8442 260.977 79.5788 261.243C79.3133 261.492 79.1806 261.851 79.1806 262.32C79.1806 262.71 79.2821 263.022 79.4851 263.257C79.7037 263.475 80.0159 263.663 80.4219 263.819C80.8434 263.975 81.3509 264.147 81.9442 264.334C82.8654 264.599 83.6616 264.865 84.333 265.13C85.02 265.396 85.5509 265.739 85.9256 266.161C86.3003 266.582 86.4877 267.168 86.4877 267.917C86.4877 269.073 86.0505 269.978 85.1761 270.634C84.3018 271.274 83.1464 271.594 81.71 271.594ZM88.3678 266.465V259.135H90.4288V266.067C90.4288 267.316 90.6474 268.253 91.0846 268.877C91.5217 269.502 92.1697 269.814 93.0284 269.814C93.5905 269.814 94.1292 269.697 94.6444 269.463C95.1753 269.213 95.6515 268.862 96.073 268.409C96.4946 267.956 96.8225 267.418 97.0567 266.793V259.135H99.1176V269.018C99.1176 269.268 99.1645 269.455 99.2581 269.58C99.3674 269.689 99.5392 269.752 99.7734 269.767V271.36C99.5392 271.391 99.3518 271.407 99.2113 271.407C99.0864 271.422 98.9615 271.43 98.8366 271.43C98.4462 271.43 98.1106 271.313 97.8295 271.079C97.5485 270.829 97.4002 270.525 97.3845 270.166L97.3377 268.737C96.8068 269.643 96.0886 270.345 95.1831 270.845C94.2931 271.344 93.3173 271.594 92.2556 271.594C90.9753 271.594 90.0072 271.165 89.3515 270.306C88.6957 269.432 88.3678 268.151 88.3678 266.465ZM108.359 271.594C107.406 271.594 106.54 271.36 105.759 270.892C104.979 270.423 104.362 269.814 103.909 269.065V271.36H102.082V254.263H104.143V261.57C104.658 260.774 105.291 260.134 106.04 259.65C106.79 259.166 107.664 258.924 108.663 258.924C109.506 258.924 110.264 259.104 110.935 259.463C111.606 259.806 112.176 260.282 112.645 260.891C113.129 261.485 113.496 262.164 113.745 262.929C114.011 263.678 114.144 264.467 114.144 265.294C114.144 266.153 113.995 266.965 113.699 267.73C113.418 268.479 113.012 269.151 112.481 269.744C111.95 270.322 111.333 270.774 110.631 271.102C109.944 271.43 109.186 271.594 108.359 271.594ZM107.844 269.814C108.453 269.814 109.015 269.689 109.53 269.44C110.045 269.19 110.49 268.854 110.865 268.432C111.239 268.011 111.528 267.527 111.731 266.98C111.934 266.434 112.036 265.872 112.036 265.294C112.036 264.498 111.864 263.748 111.521 263.046C111.193 262.343 110.724 261.781 110.115 261.36C109.522 260.922 108.827 260.704 108.031 260.704C107.453 260.704 106.915 260.837 106.415 261.102C105.915 261.367 105.47 261.719 105.08 262.156C104.705 262.577 104.393 263.046 104.143 263.561V267.098C104.221 267.488 104.385 267.847 104.635 268.175C104.885 268.503 105.189 268.792 105.548 269.041C105.908 269.276 106.282 269.463 106.673 269.603C107.079 269.744 107.469 269.814 107.844 269.814ZM120.398 271.594C119.383 271.594 118.431 271.43 117.541 271.102C116.651 270.759 115.886 270.251 115.245 269.58L116.042 268.128C116.744 268.784 117.447 269.252 118.149 269.533C118.852 269.814 119.57 269.955 120.304 269.955C121.147 269.955 121.834 269.799 122.365 269.486C122.896 269.159 123.161 268.682 123.161 268.058C123.161 267.605 123.021 267.269 122.74 267.051C122.474 266.832 122.092 266.653 121.592 266.512C121.093 266.356 120.499 266.184 119.812 265.997C118.969 265.747 118.259 265.482 117.681 265.201C117.103 264.919 116.666 264.568 116.37 264.147C116.073 263.725 115.925 263.194 115.925 262.554C115.925 261.773 116.128 261.118 116.534 260.587C116.939 260.04 117.494 259.627 118.196 259.346C118.915 259.064 119.726 258.924 120.632 258.924C121.538 258.924 122.357 259.064 123.091 259.346C123.825 259.627 124.457 260.04 124.988 260.587L124.051 262.015C123.567 261.516 123.036 261.149 122.459 260.915C121.881 260.665 121.233 260.54 120.515 260.54C120.093 260.54 119.68 260.595 119.274 260.704C118.868 260.798 118.532 260.977 118.267 261.243C118.001 261.492 117.868 261.851 117.868 262.32C117.868 262.71 117.97 263.022 118.173 263.257C118.391 263.475 118.704 263.663 119.11 263.819C119.531 263.975 120.039 264.147 120.632 264.334C121.553 264.599 122.349 264.865 123.021 265.13C123.708 265.396 124.239 265.739 124.613 266.161C124.988 266.582 125.175 267.168 125.175 267.917C125.175 269.073 124.738 269.978 123.864 270.634C122.99 271.274 121.834 271.594 120.398 271.594ZM132.583 271.594C131.662 271.594 130.818 271.43 130.053 271.102C129.304 270.759 128.648 270.29 128.086 269.697C127.54 269.104 127.11 268.425 126.798 267.66C126.501 266.895 126.353 266.083 126.353 265.224C126.353 264.069 126.611 263.015 127.126 262.062C127.641 261.11 128.367 260.353 129.304 259.791C130.241 259.213 131.326 258.924 132.559 258.924C133.762 258.924 134.808 259.197 135.698 259.744C136.603 260.275 137.275 260.993 137.712 261.898L135.698 262.531C135.385 261.953 134.948 261.508 134.386 261.196C133.824 260.868 133.2 260.704 132.513 260.704C131.763 260.704 131.076 260.899 130.452 261.289C129.843 261.68 129.359 262.218 129 262.905C128.64 263.577 128.461 264.35 128.461 265.224C128.461 266.083 128.64 266.863 129 267.566C129.374 268.253 129.866 268.799 130.475 269.205C131.1 269.611 131.787 269.814 132.536 269.814C133.02 269.814 133.481 269.728 133.918 269.557C134.371 269.385 134.761 269.159 135.089 268.877C135.432 268.581 135.666 268.261 135.791 267.917L137.805 268.526C137.556 269.119 137.173 269.65 136.658 270.119C136.158 270.572 135.557 270.931 134.855 271.196C134.168 271.461 133.41 271.594 132.583 271.594ZM146.136 260.938C145.106 260.954 144.192 261.219 143.396 261.734C142.615 262.234 142.061 262.929 141.733 263.819V271.36H139.672V259.135H141.593V261.969C142.014 261.125 142.569 260.446 143.256 259.931C143.958 259.4 144.692 259.104 145.457 259.041C145.613 259.041 145.746 259.041 145.855 259.041C145.964 259.041 146.058 259.049 146.136 259.064V260.938ZM147.712 271.36V259.135H149.773V271.36H147.712ZM147.712 256.84V254.263H149.773V256.84H147.712ZM159.222 271.594C158.223 271.594 157.333 271.344 156.552 270.845C155.772 270.345 155.155 269.713 154.702 268.948V276.348H152.641V259.135H154.468V261.43C154.952 260.68 155.584 260.079 156.365 259.627C157.146 259.158 157.996 258.924 158.918 258.924C159.761 258.924 160.534 259.096 161.236 259.439C161.939 259.783 162.548 260.251 163.063 260.844C163.578 261.438 163.976 262.117 164.257 262.882C164.554 263.631 164.702 264.42 164.702 265.247C164.702 266.403 164.468 267.464 164 268.432C163.547 269.401 162.907 270.173 162.079 270.751C161.252 271.313 160.299 271.594 159.222 271.594ZM158.59 269.814C159.199 269.814 159.745 269.689 160.229 269.44C160.729 269.174 161.15 268.831 161.494 268.409C161.853 267.972 162.126 267.48 162.314 266.934C162.501 266.387 162.595 265.825 162.595 265.247C162.595 264.638 162.485 264.061 162.267 263.514C162.064 262.968 161.767 262.484 161.377 262.062C161.002 261.641 160.557 261.313 160.042 261.079C159.542 260.829 158.996 260.704 158.402 260.704C158.028 260.704 157.637 260.774 157.231 260.915C156.841 261.055 156.466 261.258 156.107 261.524C155.748 261.773 155.444 262.062 155.194 262.39C154.944 262.718 154.78 263.069 154.702 263.444V266.934C154.936 267.464 155.249 267.948 155.639 268.386C156.029 268.823 156.482 269.174 156.997 269.44C157.512 269.689 158.043 269.814 158.59 269.814ZM172.905 270.751C172.733 270.829 172.499 270.931 172.202 271.056C171.906 271.18 171.562 271.29 171.172 271.383C170.781 271.477 170.368 271.524 169.931 271.524C169.431 271.524 168.97 271.438 168.549 271.266C168.127 271.079 167.792 270.798 167.542 270.423C167.292 270.033 167.167 269.549 167.167 268.971V260.751H165.504V259.135H167.167V255.06H169.228V259.135H171.968V260.751H169.228V268.339C169.259 268.776 169.408 269.104 169.673 269.322C169.938 269.525 170.251 269.627 170.61 269.627C171.016 269.627 171.39 269.557 171.734 269.416C172.077 269.276 172.304 269.174 172.413 269.112L172.905 270.751ZM174.347 271.36V259.135H176.408V271.36H174.347ZM174.347 256.84V254.263H176.408V256.84H174.347ZM184.616 271.594C183.694 271.594 182.859 271.43 182.11 271.102C181.36 270.759 180.712 270.298 180.166 269.721C179.619 269.127 179.198 268.448 178.901 267.683C178.604 266.918 178.456 266.114 178.456 265.271C178.456 264.412 178.604 263.6 178.901 262.835C179.198 262.07 179.619 261.399 180.166 260.821C180.712 260.228 181.36 259.767 182.11 259.439C182.875 259.096 183.71 258.924 184.616 258.924C185.537 258.924 186.372 259.096 187.122 259.439C187.871 259.767 188.519 260.228 189.065 260.821C189.628 261.399 190.057 262.07 190.354 262.835C190.65 263.6 190.799 264.412 190.799 265.271C190.799 266.114 190.65 266.918 190.354 267.683C190.057 268.448 189.635 269.127 189.089 269.721C188.542 270.298 187.887 270.759 187.122 271.102C186.372 271.43 185.537 271.594 184.616 271.594ZM180.564 265.294C180.564 266.137 180.744 266.902 181.103 267.589C181.477 268.276 181.969 268.823 182.578 269.229C183.187 269.619 183.866 269.814 184.616 269.814C185.365 269.814 186.044 269.611 186.653 269.205C187.278 268.799 187.77 268.253 188.129 267.566C188.503 266.863 188.691 266.09 188.691 265.247C188.691 264.404 188.503 263.639 188.129 262.952C187.77 262.265 187.278 261.719 186.653 261.313C186.044 260.907 185.365 260.704 184.616 260.704C183.866 260.704 183.187 260.915 182.578 261.336C181.969 261.742 181.477 262.289 181.103 262.976C180.744 263.663 180.564 264.435 180.564 265.294ZM203.437 271.36H201.376V264.521C201.376 263.225 201.173 262.281 200.767 261.688C200.376 261.079 199.775 260.774 198.963 260.774C198.401 260.774 197.839 260.915 197.277 261.196C196.731 261.477 196.239 261.859 195.802 262.343C195.38 262.812 195.076 263.358 194.888 263.983V271.36H192.827V259.135H194.701V261.758C195.029 261.18 195.45 260.68 195.966 260.259C196.481 259.837 197.066 259.509 197.722 259.275C198.378 259.041 199.065 258.924 199.783 258.924C200.486 258.924 201.071 259.057 201.54 259.322C202.024 259.572 202.398 259.931 202.664 260.399C202.945 260.852 203.14 261.391 203.249 262.015C203.374 262.64 203.437 263.319 203.437 264.053V271.36ZM222.238 271.36H220.177V264.521C220.177 263.272 219.95 262.335 219.498 261.711C219.06 261.086 218.428 260.774 217.6 260.774C217.07 260.774 216.531 260.915 215.985 261.196C215.454 261.477 214.985 261.859 214.579 262.343C214.173 262.812 213.877 263.358 213.689 263.983V271.36H211.628V254.263H213.689V261.758C214.173 260.883 214.829 260.196 215.657 259.697C216.5 259.182 217.405 258.924 218.373 258.924C219.107 258.924 219.716 259.057 220.2 259.322C220.7 259.572 221.098 259.931 221.395 260.399C221.691 260.868 221.902 261.414 222.027 262.039C222.167 262.648 222.238 263.319 222.238 264.053V271.36ZM224.974 271.36V259.135H227.035V271.36H224.974ZM224.974 256.84V254.263H227.035V256.84H224.974ZM234.095 271.594C233.081 271.594 232.128 271.43 231.238 271.102C230.348 270.759 229.583 270.251 228.943 269.58L229.739 268.128C230.442 268.784 231.145 269.252 231.847 269.533C232.55 269.814 233.268 269.955 234.002 269.955C234.845 269.955 235.532 269.799 236.063 269.486C236.594 269.159 236.859 268.682 236.859 268.058C236.859 267.605 236.719 267.269 236.437 267.051C236.172 266.832 235.79 266.653 235.29 266.512C234.79 266.356 234.197 266.184 233.51 265.997C232.667 265.747 231.956 265.482 231.379 265.201C230.801 264.919 230.364 264.568 230.067 264.147C229.771 263.725 229.622 263.194 229.622 262.554C229.622 261.773 229.825 261.118 230.231 260.587C230.637 260.04 231.191 259.627 231.894 259.346C232.612 259.064 233.424 258.924 234.33 258.924C235.235 258.924 236.055 259.064 236.789 259.346C237.523 259.627 238.155 260.04 238.686 260.587L237.749 262.015C237.265 261.516 236.734 261.149 236.156 260.915C235.579 260.665 234.931 260.54 234.213 260.54C233.791 260.54 233.377 260.595 232.971 260.704C232.565 260.798 232.23 260.977 231.964 261.243C231.699 261.492 231.566 261.851 231.566 262.32C231.566 262.71 231.668 263.022 231.871 263.257C232.089 263.475 232.401 263.663 232.807 263.819C233.229 263.975 233.736 264.147 234.33 264.334C235.251 264.599 236.047 264.865 236.719 265.13C237.406 265.396 237.936 265.739 238.311 266.161C238.686 266.582 238.873 267.168 238.873 267.917C238.873 269.073 238.436 269.978 237.562 270.634C236.687 271.274 235.532 271.594 234.095 271.594ZM247.194 270.751C247.022 270.829 246.788 270.931 246.491 271.056C246.195 271.18 245.851 271.29 245.461 271.383C245.07 271.477 244.657 271.524 244.22 271.524C243.72 271.524 243.259 271.438 242.838 271.266C242.416 271.079 242.08 270.798 241.831 270.423C241.581 270.033 241.456 269.549 241.456 268.971V260.751H239.793V259.135H241.456V255.06H243.517V259.135H246.257V260.751H243.517V268.339C243.548 268.776 243.696 269.104 243.962 269.322C244.227 269.525 244.54 269.627 244.899 269.627C245.305 269.627 245.679 269.557 246.023 269.416C246.366 269.276 246.593 269.174 246.702 269.112L247.194 270.751ZM253.815 271.594C252.894 271.594 252.059 271.43 251.309 271.102C250.56 270.759 249.912 270.298 249.366 269.721C248.819 269.127 248.397 268.448 248.101 267.683C247.804 266.918 247.656 266.114 247.656 265.271C247.656 264.412 247.804 263.6 248.101 262.835C248.397 262.07 248.819 261.399 249.366 260.821C249.912 260.228 250.56 259.767 251.309 259.439C252.074 259.096 252.91 258.924 253.815 258.924C254.737 258.924 255.572 259.096 256.321 259.439C257.071 259.767 257.719 260.228 258.265 260.821C258.827 261.399 259.257 262.07 259.553 262.835C259.85 263.6 259.998 264.412 259.998 265.271C259.998 266.114 259.85 266.918 259.553 267.683C259.257 268.448 258.835 269.127 258.289 269.721C257.742 270.298 257.086 270.759 256.321 271.102C255.572 271.43 254.737 271.594 253.815 271.594ZM249.764 265.294C249.764 266.137 249.943 266.902 250.302 267.589C250.677 268.276 251.169 268.823 251.778 269.229C252.387 269.619 253.066 269.814 253.815 269.814C254.565 269.814 255.244 269.611 255.853 269.205C256.477 268.799 256.969 268.253 257.328 267.566C257.703 266.863 257.89 266.09 257.89 265.247C257.89 264.404 257.703 263.639 257.328 262.952C256.969 262.265 256.477 261.719 255.853 261.313C255.244 260.907 254.565 260.704 253.815 260.704C253.066 260.704 252.387 260.915 251.778 261.336C251.169 261.742 250.677 262.289 250.302 262.976C249.943 263.663 249.764 264.435 249.764 265.294ZM268.491 260.938C267.461 260.954 266.547 261.219 265.751 261.734C264.97 262.234 264.416 262.929 264.088 263.819V271.36H262.027V259.135H263.948V261.969C264.369 261.125 264.923 260.446 265.61 259.931C266.313 259.4 267.047 259.104 267.812 259.041C267.968 259.041 268.101 259.041 268.21 259.041C268.319 259.041 268.413 259.049 268.491 259.064V260.938ZM270.629 274.686C270.832 274.701 271.035 274.717 271.238 274.732C271.441 274.764 271.597 274.779 271.706 274.779C271.956 274.779 272.175 274.693 272.362 274.522C272.549 274.35 272.752 274.014 272.971 273.515C273.205 273.031 273.502 272.312 273.861 271.36L268.685 259.135H270.863L274.985 269.276L278.709 259.135H280.746L274.798 274.569C274.657 274.928 274.446 275.263 274.165 275.576C273.9 275.903 273.556 276.161 273.135 276.348C272.713 276.536 272.206 276.629 271.613 276.629C271.472 276.629 271.324 276.622 271.168 276.606C271.027 276.59 270.847 276.559 270.629 276.512V274.686ZM287.831 271.36V260.751H286.168V259.135H287.831V258.877C287.831 257.878 287.979 257.019 288.276 256.301C288.588 255.567 289.025 255.005 289.588 254.615C290.15 254.224 290.813 254.029 291.578 254.029C292.062 254.029 292.538 254.099 293.007 254.24C293.475 254.365 293.897 254.544 294.272 254.779L293.756 256.301C293.538 256.145 293.264 256.02 292.937 255.926C292.624 255.833 292.312 255.786 292 255.786C291.328 255.786 290.805 256.051 290.431 256.582C290.072 257.097 289.892 257.839 289.892 258.807V259.135H293.147V260.751H289.892V271.36H287.831ZM299.777 271.594C298.856 271.594 298.021 271.43 297.271 271.102C296.522 270.759 295.874 270.298 295.327 269.721C294.781 269.127 294.359 268.448 294.063 267.683C293.766 266.918 293.618 266.114 293.618 265.271C293.618 264.412 293.766 263.6 294.063 262.835C294.359 262.07 294.781 261.399 295.327 260.821C295.874 260.228 296.522 259.767 297.271 259.439C298.036 259.096 298.871 258.924 299.777 258.924C300.698 258.924 301.534 259.096 302.283 259.439C303.032 259.767 303.68 260.228 304.227 260.821C304.789 261.399 305.218 262.07 305.515 262.835C305.812 263.6 305.96 264.412 305.96 265.271C305.96 266.114 305.812 266.918 305.515 267.683C305.218 268.448 304.797 269.127 304.25 269.721C303.704 270.298 303.048 270.759 302.283 271.102C301.534 271.43 300.698 271.594 299.777 271.594ZM295.725 265.294C295.725 266.137 295.905 266.902 296.264 267.589C296.639 268.276 297.131 268.823 297.74 269.229C298.348 269.619 299.028 269.814 299.777 269.814C300.527 269.814 301.206 269.611 301.815 269.205C302.439 268.799 302.931 268.253 303.29 267.566C303.665 266.863 303.852 266.09 303.852 265.247C303.852 264.404 303.665 263.639 303.29 262.952C302.931 262.265 302.439 261.719 301.815 261.313C301.206 260.907 300.527 260.704 299.777 260.704C299.028 260.704 298.348 260.915 297.74 261.336C297.131 261.742 296.639 262.289 296.264 262.976C295.905 263.663 295.725 264.435 295.725 265.294ZM307.872 266.465V259.135H309.933V266.067C309.933 267.316 310.151 268.253 310.589 268.877C311.026 269.502 311.674 269.814 312.532 269.814C313.094 269.814 313.633 269.697 314.148 269.463C314.679 269.213 315.155 268.862 315.577 268.409C315.999 267.956 316.326 267.418 316.561 266.793V259.135H318.622V269.018C318.622 269.268 318.668 269.455 318.762 269.58C318.871 269.689 319.043 269.752 319.277 269.767V271.36C319.043 271.391 318.856 271.407 318.715 271.407C318.59 271.422 318.465 271.43 318.341 271.43C317.95 271.43 317.615 271.313 317.333 271.079C317.052 270.829 316.904 270.525 316.889 270.166L316.842 268.737C316.311 269.643 315.593 270.345 314.687 270.845C313.797 271.344 312.821 271.594 311.76 271.594C310.479 271.594 309.511 271.165 308.855 270.306C308.2 269.432 307.872 268.151 307.872 266.465ZM332.195 271.36H330.135V264.521C330.135 263.225 329.932 262.281 329.526 261.688C329.135 261.079 328.534 260.774 327.722 260.774C327.16 260.774 326.598 260.915 326.036 261.196C325.49 261.477 324.998 261.859 324.561 262.343C324.139 262.812 323.835 263.358 323.647 263.983V271.36H321.586V259.135H323.46V261.758C323.788 261.18 324.209 260.68 324.725 260.259C325.24 259.837 325.825 259.509 326.481 259.275C327.137 259.041 327.824 258.924 328.542 258.924C329.245 258.924 329.83 259.057 330.298 259.322C330.782 259.572 331.157 259.931 331.423 260.399C331.704 260.852 331.899 261.391 332.008 262.015C332.133 262.64 332.195 263.319 332.195 264.053V271.36ZM334.136 265.271C334.136 264.115 334.37 263.061 334.838 262.109C335.322 261.141 335.978 260.368 336.806 259.791C337.649 259.213 338.609 258.924 339.686 258.924C340.67 258.924 341.552 259.182 342.333 259.697C343.113 260.212 343.722 260.837 344.159 261.57V254.263H346.22V269.018C346.22 269.268 346.267 269.455 346.361 269.58C346.47 269.689 346.642 269.752 346.876 269.767V271.36C346.486 271.422 346.181 271.454 345.963 271.454C345.557 271.454 345.198 271.313 344.885 271.032C344.589 270.751 344.44 270.439 344.44 270.095V269.065C343.956 269.845 343.309 270.462 342.497 270.915C341.685 271.368 340.842 271.594 339.967 271.594C339.124 271.594 338.343 271.43 337.625 271.102C336.923 270.759 336.306 270.29 335.775 269.697C335.26 269.104 334.854 268.432 334.557 267.683C334.276 266.918 334.136 266.114 334.136 265.271ZM344.159 267.074V263.561C343.972 263.03 343.668 262.554 343.246 262.133C342.824 261.695 342.348 261.352 341.817 261.102C341.302 260.837 340.787 260.704 340.272 260.704C339.663 260.704 339.109 260.837 338.609 261.102C338.125 261.352 337.703 261.695 337.344 262.133C337.001 262.554 336.735 263.038 336.548 263.585C336.361 264.131 336.267 264.701 336.267 265.294C336.267 265.903 336.368 266.481 336.571 267.027C336.79 267.574 337.087 268.058 337.461 268.479C337.852 268.901 338.297 269.229 338.796 269.463C339.311 269.697 339.866 269.814 340.459 269.814C340.834 269.814 341.216 269.744 341.607 269.603C342.013 269.463 342.395 269.268 342.754 269.018C343.113 268.768 343.418 268.479 343.668 268.151C343.917 267.808 344.081 267.449 344.159 267.074Z" fill="black" fill-opacity="0.5"/>
<defs>
<linearGradient id="paint0_linear_980_270" x1="133.016" y1="229.865" x2="260.104" y2="229.865" gradientUnits="userSpaceOnUse">
<stop stop-color="#AAABC9" stop-opacity="0.01"/>
<stop offset="1" stop-color="#0E154B"/>
</linearGradient>
<linearGradient id="paint1_linear_980_270" x1="322.342" y1="134.658" x2="309.518" y2="134.882" gradientUnits="userSpaceOnUse">
<stop stop-color="#8FA1B0"/>
<stop offset="1" stop-color="#5F7083"/>
</linearGradient>
<linearGradient id="paint2_linear_980_270" x1="309.529" y1="120.954" x2="297.905" y2="126.374" gradientUnits="userSpaceOnUse">
<stop stop-color="#8FA1B0"/>
<stop offset="1" stop-color="#5F7083"/>
</linearGradient>
<linearGradient id="paint3_linear_980_270" x1="327.215" y1="152.534" x2="315.997" y2="146.316" gradientUnits="userSpaceOnUse">
<stop stop-color="#8FA1B0"/>
<stop offset="1" stop-color="#5F7083"/>
</linearGradient>
<linearGradient id="paint4_linear_980_270" x1="66.5332" y1="97.5042" x2="79.3411" y2="98.1754" gradientUnits="userSpaceOnUse">
<stop stop-color="#8FA1B0"/>
<stop offset="1" stop-color="#5F7083"/>
</linearGradient>
<linearGradient id="paint5_linear_980_270" x1="79.8164" y1="84.2558" x2="91.244" y2="90.0785" gradientUnits="userSpaceOnUse">
<stop stop-color="#8FA1B0"/>
<stop offset="1" stop-color="#5F7083"/>
</linearGradient>
<linearGradient id="paint6_linear_980_270" x1="61.041" y1="115.2" x2="72.4686" y2="109.377" gradientUnits="userSpaceOnUse">
<stop stop-color="#8FA1B0"/>
<stop offset="1" stop-color="#5F7083"/>
</linearGradient>
<clipPath id="clip0_980_270">
<rect width="182.246" height="182.246" fill="white" transform="translate(104.469)"/>
</clipPath>
</defs>
</svg>
