<svg width="26" height="26" viewBox="0 0 26 26" fill="none" xmlns="http://www.w3.org/2000/svg">
<path fill-rule="evenodd" clip-rule="evenodd" d="M4.76589 9.47443C4.32166 10.4011 4.4776 11.4848 4.78949 13.6524L5.01862 15.2448C5.41926 18.0291 5.61957 19.4213 6.58543 20.253C7.55128 21.0846 8.96774 21.0846 11.8007 21.0846H13.619C16.4519 21.0846 17.8683 21.0846 18.8342 20.253C19.8001 19.4213 20.0004 18.0291 20.401 15.2448L20.6301 13.6524C20.942 11.4848 21.098 10.4011 20.6537 9.47443C20.2095 8.54781 19.2639 7.98455 17.3728 6.85803L16.2346 6.17996C14.5173 5.15697 13.6586 4.64548 12.7098 4.64548C11.761 4.64548 10.9024 5.15697 9.18505 6.17997L8.04677 6.85803C6.15568 7.98455 5.21013 8.54781 4.76589 9.47443ZM9.62755 17.7966C9.62755 17.4562 9.90355 17.1802 10.244 17.1802H15.1758C15.5162 17.1802 15.7922 17.4562 15.7922 17.7966C15.7922 18.1371 15.5162 18.4131 15.1758 18.4131H10.244C9.90355 18.4131 9.62755 18.1371 9.62755 17.7966Z" fill="white"/>
</svg>
