<svg width="29" height="30" viewBox="0 0 29 30" fill="none" xmlns="http://www.w3.org/2000/svg">
<path d="M4.74219 10.2744C4.74219 8.39195 4.74219 7.45072 5.3672 6.86591C5.99221 6.28111 6.99816 6.28111 9.01004 6.28111C11.0219 6.28111 12.0279 6.28111 12.6529 6.86591C13.2779 7.45072 13.2779 8.39195 13.2779 10.2744V21.256C13.2779 23.1385 13.2779 24.0797 12.6529 24.6646C12.0279 25.2494 11.0219 25.2494 9.01004 25.2494C6.99816 25.2494 5.99221 25.2494 5.3672 24.6646C4.74219 24.0797 4.74219 23.1385 4.74219 21.256V10.2744Z" fill="white"/>
<path d="M15.1738 18.9898C15.1738 17.0227 15.1738 16.0391 15.7988 15.4279C16.4239 14.8168 17.4298 14.8168 19.4417 14.8168C21.4536 14.8168 22.4595 14.8168 23.0845 15.4279C23.7095 16.0391 23.7095 17.0227 23.7095 18.9898V21.0763C23.7095 23.0435 23.7095 24.0271 23.0845 24.6382C22.4595 25.2494 21.4536 25.2494 19.4417 25.2494C17.4298 25.2494 16.4239 25.2494 15.7988 24.6382C15.1738 24.0271 15.1738 23.0435 15.1738 21.0763V18.9898Z" fill="white"/>
<path d="M15.1738 9.60055C15.1738 8.56944 15.1738 8.05388 15.3363 7.6472C15.5528 7.10497 15.9683 6.67416 16.4911 6.44956C16.8833 6.28111 17.3804 6.28111 18.3747 6.28111H20.5086C21.5029 6.28111 22.0001 6.28111 22.3922 6.44956C22.9151 6.67416 23.3305 7.10497 23.5471 7.6472C23.7095 8.05388 23.7095 8.56944 23.7095 9.60055C23.7095 10.6317 23.7095 11.1472 23.5471 11.5539C23.3305 12.0961 22.9151 12.5269 22.3922 12.7515C22.0001 12.92 21.5029 12.92 20.5086 12.92H18.3747C17.3804 12.92 16.8833 12.92 16.4911 12.7515C15.9683 12.5269 15.5528 12.0961 15.3363 11.5539C15.1738 11.1472 15.1738 10.6317 15.1738 9.60055Z" fill="white"/>
</svg>
