<svg width="29" height="29" viewBox="0 0 29 29" fill="none" xmlns="http://www.w3.org/2000/svg">
<path fill-rule="evenodd" clip-rule="evenodd" d="M22.8577 10.6581C22.804 10.6547 22.7455 10.6547 22.6848 10.6548L22.6697 10.6548H20.2906C18.3296 10.6548 16.6516 12.1984 16.6516 14.2113C16.6516 16.2243 18.3296 17.7679 20.2906 17.7679H22.6697L22.6848 17.7679C22.7455 17.7679 22.804 17.7679 22.8577 17.7645C23.6543 17.7142 24.3587 17.0909 24.4179 16.2203C24.4218 16.1632 24.4218 16.1016 24.4217 16.0446L24.4217 16.0291V12.3935L24.4217 12.378C24.4218 12.321 24.4218 12.2595 24.4179 12.2024C24.3587 11.3317 23.6543 10.7084 22.8577 10.6581ZM20.0796 15.1597C20.5845 15.1597 20.9937 14.7351 20.9937 14.2113C20.9937 13.6875 20.5845 13.2629 20.0796 13.2629C19.5747 13.2629 19.1655 13.6875 19.1655 14.2113C19.1655 14.7351 19.5747 15.1597 20.0796 15.1597Z" fill="white"/>
<path fill-rule="evenodd" clip-rule="evenodd" d="M22.6842 19.1905C22.8256 19.1868 22.9326 19.3178 22.8942 19.4539C22.7038 20.1296 22.4017 20.7055 21.9168 21.1904C21.207 21.9002 20.307 22.2152 19.1951 22.3647C18.1146 22.5099 16.7341 22.5099 14.9911 22.5099H12.9873C11.2443 22.5099 9.8638 22.5099 8.78335 22.3647C7.67141 22.2152 6.77142 21.9002 6.06166 21.1904C5.3519 20.4807 5.03692 19.5807 4.88742 18.4688C4.74216 17.3883 4.74217 16.0078 4.74219 14.2648V14.1578C4.74217 12.4148 4.74216 11.0343 4.88742 9.95386C5.03692 8.84192 5.3519 7.94193 6.06166 7.23217C6.77142 6.52241 7.67141 6.20743 8.78335 6.05793C9.8638 5.91267 11.2443 5.91268 12.9873 5.9127L14.9911 5.9127C16.7341 5.91268 18.1146 5.91267 19.1951 6.05793C20.307 6.20743 21.207 6.52241 21.9168 7.23217C22.4017 7.71707 22.7038 8.29297 22.8942 8.96866C22.9326 9.10482 22.8256 9.23581 22.6842 9.23215L20.2905 9.23215C17.6002 9.23215 15.2289 11.3575 15.2289 14.2113C15.2289 17.0652 17.6002 19.1905 20.2905 19.1905L22.6842 19.1905ZM8.29874 9.70635C7.90589 9.70635 7.58743 10.0248 7.58743 10.4177C7.58743 10.8105 7.90589 11.129 8.29874 11.129H12.0924C12.4852 11.129 12.8037 10.8105 12.8037 10.4177C12.8037 10.0248 12.4852 9.70635 12.0924 9.70635H8.29874Z" fill="white"/>
</svg>
