<svg width="30" height="31" viewBox="0 0 30 31" fill="none" xmlns="http://www.w3.org/2000/svg">
<path fill-rule="evenodd" clip-rule="evenodd" d="M29.1796 15.4654C29.1796 23.5167 22.6527 30.0435 14.6015 30.0435C6.55026 30.0435 0.0234375 23.5167 0.0234375 15.4654C0.0234375 7.41418 6.55026 0.88736 14.6015 0.88736C22.6527 0.88736 29.1796 7.41418 29.1796 15.4654ZM10.1838 11.0478C10.6108 10.6208 11.3031 10.6208 11.73 11.0478L14.6015 13.9192L17.4728 11.0478C17.8998 10.6208 18.5921 10.6208 19.0191 11.0478C19.4461 11.4748 19.4461 12.167 19.0191 12.594L16.1477 15.4654L19.019 18.3368C19.446 18.7637 19.446 19.456 19.019 19.883C18.5921 20.31 17.8998 20.31 17.4728 19.883L14.6015 17.0116L11.7301 19.883C11.3031 20.31 10.6108 20.31 10.1838 19.883C9.75685 19.456 9.75685 18.7638 10.1838 18.3368L13.0552 15.4654L10.1838 12.594C9.75682 12.167 9.75682 11.4747 10.1838 11.0478Z" fill="#266CA8"/>
</svg>
