<svg width="31" height="31" viewBox="0 0 31 31" fill="none" xmlns="http://www.w3.org/2000/svg">
<path d="M6.54102 9.89039C6.54102 9.50036 6.86403 9.18418 7.2625 9.18418H11.9966C12.003 8.35245 12.0931 7.21222 12.9185 6.42288C13.5681 5.80168 14.4586 5.41768 15.4393 5.41768C16.4201 5.41768 17.3106 5.80168 17.9602 6.42288C18.7856 7.21222 18.8757 8.35245 18.8821 9.18418H23.6162C24.0147 9.18418 24.3377 9.50036 24.3377 9.89039C24.3377 10.2804 24.0147 10.5966 23.6162 10.5966H7.2625C6.86403 10.5966 6.54102 10.2804 6.54102 9.89039Z" fill="#ED2A2A"/>
<path d="M15.0504 25.1918H15.8284C18.5053 25.1918 19.8438 25.1918 20.714 24.3383C21.5843 23.4848 21.6733 22.0849 21.8514 19.285L22.1079 15.2505C22.2045 13.7313 22.2529 12.9717 21.8163 12.4904C21.3797 12.009 20.6425 12.009 19.168 12.009H11.7108C10.2363 12.009 9.49905 12.009 9.06247 12.4904C8.6259 12.9717 8.67421 13.7313 8.77082 15.2505L9.0274 19.285C9.20547 22.0849 9.2945 23.4848 10.1647 24.3383C11.035 25.1918 12.3734 25.1918 15.0504 25.1918Z" fill="#ED2A2A"/>
</svg>
