<svg width="15" height="14" viewBox="0 0 15 14" fill="none" xmlns="http://www.w3.org/2000/svg">
<path d="M7.95757 10.0652C7.86095 10.1709 7.72436 10.2311 7.58117 10.2311C7.43799 10.2311 7.3014 10.1709 7.20478 10.0652L4.48478 7.09023C4.29472 6.88235 4.30916 6.55976 4.51704 6.3697C4.72492 6.17964 5.04751 6.19408 5.23757 6.40196L7.07117 8.40747V0.881094C7.07117 0.599429 7.29951 0.371094 7.58117 0.371094C7.86284 0.371094 8.09117 0.599429 8.09117 0.881094V8.40747L9.92478 6.40196C10.1148 6.19408 10.4374 6.17964 10.6453 6.3697C10.8532 6.55976 10.8676 6.88235 10.6776 7.09023L7.95757 10.0652Z" fill="#266CA8"/>
<path d="M1.97117 9.04109C1.97117 8.75943 1.74284 8.53109 1.46117 8.53109C1.17951 8.53109 0.951172 8.75943 0.951172 9.04109V9.07841C0.951158 10.0084 0.951147 10.7579 1.03041 11.3475C1.1127 11.9596 1.28875 12.4749 1.69805 12.8842C2.10735 13.2935 2.62271 13.4696 3.23478 13.5519C3.82432 13.6311 4.5739 13.6311 5.50386 13.6311H9.65848C10.5884 13.6311 11.338 13.6311 11.9276 13.5519C12.5396 13.4696 13.055 13.2935 13.4643 12.8842C13.8736 12.4749 14.0496 11.9596 14.1319 11.3475C14.2112 10.7579 14.2112 10.0084 14.2112 9.0784V9.04109C14.2112 8.75943 13.9828 8.53109 13.7012 8.53109C13.4195 8.53109 13.1912 8.75943 13.1912 9.04109C13.1912 10.0172 13.1901 10.6979 13.121 11.2116C13.0539 11.7105 12.9312 11.9748 12.743 12.163C12.5548 12.3512 12.2906 12.4739 11.7917 12.541C11.278 12.61 10.5973 12.6111 9.62117 12.6111H5.54117C4.56509 12.6111 3.88433 12.61 3.37069 12.541C2.87173 12.4739 2.6075 12.3512 2.4193 12.163C2.2311 11.9748 2.1084 11.7105 2.04131 11.2116C1.97226 10.6979 1.97117 10.0172 1.97117 9.04109Z" fill="#266CA8"/>
</svg>
