<svg width="30" height="31" viewBox="0 0 30 31" fill="none" xmlns="http://www.w3.org/2000/svg">
<path fill-rule="evenodd" clip-rule="evenodd" d="M6.37891 25.1918C6.37891 24.7822 6.7109 24.4502 7.12043 24.4502H22.9397C23.3492 24.4502 23.6812 24.7822 23.6812 25.1918C23.6812 25.6013 23.3492 25.9333 22.9397 25.9333H7.12043C6.7109 25.9333 6.37891 25.6013 6.37891 25.1918Z" fill="#266CA8"/>
<path d="M14.5562 18.2006L14.5562 18.2006L20.4061 12.3507C19.6099 12.0194 18.6669 11.475 17.7751 10.5832C16.8831 9.69124 16.3388 8.74809 16.0074 7.95185L10.1575 13.8018L10.1574 13.8019C9.70094 14.2583 9.47268 14.4866 9.27639 14.7383C9.04482 15.0351 8.84629 15.3564 8.68431 15.6963C8.54699 15.9844 8.44491 16.2906 8.24075 16.9031L7.16416 20.1329C7.06369 20.4343 7.14214 20.7666 7.36679 20.9913C7.59145 21.2159 7.92375 21.2943 8.22515 21.1939L11.4549 20.1173C12.0674 19.9131 12.3736 19.8111 12.6618 19.6737C13.0017 19.5118 13.3229 19.3132 13.6198 19.0817C13.8714 18.8854 14.0997 18.6571 14.5562 18.2006Z" fill="#266CA8"/>
<path d="M22.0293 10.7275C23.244 9.51277 23.244 7.54338 22.0293 6.32869C20.8147 5.11401 18.8453 5.11401 17.6306 6.32869L16.929 7.03031C16.9386 7.05932 16.9485 7.08873 16.9589 7.11853C17.216 7.85978 17.7013 8.83148 18.614 9.74427C19.5268 10.657 20.4985 11.1423 21.2398 11.3994C21.2694 11.4097 21.2987 11.4196 21.3276 11.4292L22.0293 10.7275Z" fill="#266CA8"/>
</svg>
