<svg width="36" height="36" viewBox="0 0 36 36" fill="none" xmlns="http://www.w3.org/2000/svg">
<g clip-path="url(#clip0_26_1616)">
<path fill-rule="evenodd" clip-rule="evenodd" d="M12.3151 7.51046C12.4596 6.15545 13.6065 5.10001 14.9998 5.10001H20.9998C22.3932 5.10001 23.54 6.15545 23.6845 7.51046C24.6003 7.5291 25.3921 7.57647 26.0682 7.70066C26.9778 7.86774 27.7519 8.18602 28.3818 8.81594C29.1041 9.53824 29.4148 10.4477 29.56 11.5278C29.6999 12.5682 29.6998 13.891 29.6998 15.5321V22.8638C29.6998 24.5049 29.6999 25.8277 29.56 26.868C29.4148 27.9482 29.1041 28.8576 28.3818 29.5799C27.6595 30.3022 26.75 30.6129 25.6699 30.7581C24.6295 30.898 23.3068 30.8979 21.6656 30.8979H14.334C12.6929 30.8979 11.3701 30.898 10.3297 30.7581C9.24957 30.6129 8.34013 30.3022 7.61783 29.5799C6.89553 28.8576 6.58485 27.9482 6.43963 26.868C6.29976 25.8277 6.29978 24.5049 6.29981 22.8638V15.5321C6.29978 13.891 6.29976 12.5682 6.43963 11.5278C6.58485 10.4477 6.89553 9.53824 7.61783 8.81594C8.24774 8.18602 9.02183 7.86774 9.93143 7.70066C10.6075 7.57647 11.3994 7.5291 12.3151 7.51046ZM12.3175 9.31096C11.4558 9.32937 10.7918 9.37273 10.2566 9.47104C9.57645 9.59597 9.18276 9.79659 8.89062 10.0887C8.5585 10.4208 8.34197 10.8871 8.22358 11.7677C8.10172 12.6741 8.09981 13.8754 8.09981 15.5979V22.7979C8.09981 24.5204 8.10172 25.7218 8.22358 26.6282C8.34197 27.5087 8.5585 27.975 8.89062 28.3071C9.22273 28.6392 9.68902 28.8558 10.5696 28.9741C11.476 29.096 12.6773 29.0979 14.3998 29.0979H21.5998C23.3223 29.0979 24.5236 29.096 25.4301 28.9741C26.3106 28.8558 26.7769 28.6392 27.109 28.3071C27.4411 27.975 27.6576 27.5087 27.776 26.6282C27.8979 25.7218 27.8998 24.5204 27.8998 22.7979V15.5979C27.8998 13.8754 27.8979 12.6741 27.776 11.7677C27.6576 10.8871 27.4411 10.4208 27.109 10.0887C26.8169 9.79659 26.4232 9.59597 25.743 9.47104C25.2078 9.37273 24.5438 9.32937 23.6821 9.31096C23.5279 10.6557 22.3858 11.7 20.9998 11.7H14.9998C13.6138 11.7 12.4717 10.6557 12.3175 9.31096ZM14.9998 6.90001C14.5027 6.90001 14.0998 7.30295 14.0998 7.80001V9.00001C14.0998 9.49706 14.5027 9.90001 14.9998 9.90001H20.9998C21.4969 9.90001 21.8998 9.49706 21.8998 9.00001V7.80001C21.8998 7.30295 21.4969 6.90001 20.9998 6.90001H14.9998Z" fill="black" fill-opacity="0.4"/>
<rect width="13.2" height="13.2" transform="translate(20.4004 18)" fill="white"/>
<path d="M33.1379 22.4961C33.2 23.2025 33.2 24.0831 33.2 25.2C33.2 27.5148 33.2 28.8147 32.647 29.6527L29.3142 26.3199L33.1379 22.4961Z" fill="black" fill-opacity="0.4"/>
<path d="M32.0531 30.2467L28.7202 26.9138L24.8961 30.7379C25.6026 30.8 26.4832 30.8 27.6 30.8C29.9152 30.8 31.2152 30.8 32.0531 30.2467Z" fill="black" fill-opacity="0.4"/>
<path fill-rule="evenodd" clip-rule="evenodd" d="M27.6 19.6C30.2399 19.6 31.5598 19.6 32.3799 20.4201C32.6621 20.7022 32.8471 21.0436 32.9686 21.4775L23.8775 30.5685C23.4436 30.4471 23.1023 30.262 22.8201 29.9799C22 29.1598 22 27.8398 22 25.2C22 22.5601 22 21.2402 22.8201 20.4201C23.6402 19.6 24.9601 19.6 27.6 19.6ZM23.96 23.3841C23.96 24.3836 24.5856 25.55 25.5616 25.9671C25.7891 26.0643 26.0509 26.0643 26.2784 25.9671C27.2544 25.55 27.88 24.3836 27.88 23.3841C27.88 22.3767 27.0025 21.56 25.92 21.56C24.8375 21.56 23.96 22.3767 23.96 23.3841Z" fill="black" fill-opacity="0.4"/>
<path d="M26.76 23.52C26.76 23.9839 26.3839 24.36 25.92 24.36C25.4561 24.36 25.08 23.9839 25.08 23.52C25.08 23.0561 25.4561 22.68 25.92 22.68C26.3839 22.68 26.76 23.0561 26.76 23.52Z" fill="black" fill-opacity="0.4"/>
</g>
<defs>
<clipPath id="clip0_26_1616">
<rect width="36" height="36" rx="6" fill="white"/>
</clipPath>
</defs>
</svg>
