<svg width="27" height="27" viewBox="0 0 27 27" fill="none" xmlns="http://www.w3.org/2000/svg">
<path d="M13.6117 17.0536C13.488 17.1889 13.313 17.266 13.1296 17.266C12.9462 17.266 12.7713 17.1889 12.6475 17.0536L9.16366 13.2431C8.92023 12.9768 8.93873 12.5636 9.20498 12.3202C9.47124 12.0768 9.88443 12.0953 10.1279 12.3615L12.4764 14.9302V5.2902C12.4764 4.92943 12.7689 4.63697 13.1296 4.63697C13.4904 4.63697 13.7829 4.92943 13.7829 5.2902V14.9302L16.1314 12.3615C16.3748 12.0953 16.788 12.0768 17.0543 12.3202C17.3205 12.5636 17.339 12.9768 17.0956 13.2431L13.6117 17.0536Z" fill="#E98B1F"/>
<path d="M5.94415 15.7418C5.94415 15.381 5.65169 15.0886 5.29092 15.0886C4.93016 15.0886 4.6377 15.381 4.6377 15.7418V15.7896C4.63768 16.9807 4.63766 17.9408 4.73918 18.6959C4.84459 19.4799 5.07007 20.14 5.59432 20.6642C6.11857 21.1885 6.77866 21.414 7.56262 21.5194C8.31772 21.6209 9.27781 21.6209 10.4689 21.6208H15.7903C16.9815 21.6209 17.9415 21.6209 18.6966 21.5194C19.4806 21.414 20.1407 21.1885 20.6649 20.6642C21.1892 20.14 21.4147 19.4799 21.5201 18.6959C21.6216 17.9408 21.6216 16.9807 21.6216 15.7896V15.7418C21.6216 15.381 21.3291 15.0886 20.9683 15.0886C20.6076 15.0886 20.3151 15.381 20.3151 15.7418C20.3151 16.992 20.3137 17.8639 20.2253 18.5218C20.1394 19.1609 19.9822 19.4994 19.7411 19.7404C19.5001 19.9815 19.1617 20.1386 18.5226 20.2246C17.8647 20.313 16.9927 20.3144 15.7425 20.3144H10.5167C9.26653 20.3144 8.39459 20.313 7.7367 20.2246C7.09761 20.1386 6.75918 19.9815 6.51812 19.7404C6.27707 19.4994 6.11991 19.1609 6.03399 18.5218C5.94554 17.8639 5.94415 16.992 5.94415 15.7418Z" fill="#E98B1F"/>
</svg>
