<svg width="40" height="40" viewBox="0 0 40 40" fill="none" xmlns="http://www.w3.org/2000/svg">
<path fill-rule="evenodd" clip-rule="evenodd" d="M17.2575 5.66666L17.3327 5.66667C17.885 5.66667 18.3327 6.11438 18.3327 6.66667C18.3327 7.21895 17.885 7.66667 17.3327 7.66667C14.7903 7.66667 12.984 7.66879 11.6138 7.85301C10.2724 8.03336 9.4995 8.37159 8.93522 8.93587C8.37094 9.50015 8.03272 10.273 7.85236 11.6145C7.66814 12.9847 7.66602 14.7909 7.66602 17.3333C7.66602 17.8856 7.2183 18.3333 6.66602 18.3333C6.11373 18.3333 5.66602 17.8856 5.66602 17.3333L5.66602 17.2581C5.66599 14.8078 5.66598 12.8669 5.8702 11.348C6.08037 9.78474 6.52319 8.51947 7.52101 7.52166C8.51882 6.52384 9.78409 6.08102 11.3473 5.87084C12.8663 5.66663 14.8071 5.66664 17.2575 5.66666ZM28.3849 7.85301C27.0147 7.66879 25.2084 7.66667 22.666 7.66667C22.1137 7.66667 21.666 7.21895 21.666 6.66667C21.666 6.11438 22.1137 5.66667 22.666 5.66667L22.7412 5.66666C25.1916 5.66664 27.1324 5.66663 28.6514 5.87084C30.2146 6.08102 31.4799 6.52384 32.4777 7.52166C33.4755 8.51947 33.9183 9.78474 34.1285 11.348C34.3327 12.8669 34.3327 14.8078 34.3327 17.2581V17.3333C34.3327 17.8856 33.885 18.3333 33.3327 18.3333C32.7804 18.3333 32.3327 17.8856 32.3327 17.3333C32.3327 14.7909 32.3306 12.9847 32.1463 11.6145C31.966 10.273 31.6278 9.50015 31.0635 8.93587C30.4992 8.37159 29.7263 8.03336 28.3849 7.85301ZM6.66602 21.6667C7.2183 21.6667 7.66602 22.1144 7.66602 22.6667C7.66602 25.2091 7.66814 27.0153 7.85236 28.3855C8.03272 29.727 8.37094 30.4998 8.93522 31.0641C9.4995 31.6284 10.2724 31.9666 11.6138 32.147C12.984 32.3312 14.7903 32.3333 17.3327 32.3333C17.885 32.3333 18.3327 32.781 18.3327 33.3333C18.3327 33.8856 17.885 34.3333 17.3327 34.3333H17.2575C14.8071 34.3334 12.8663 34.3334 11.3473 34.1292C9.78409 33.919 8.51882 33.4762 7.52101 32.4783C6.52319 31.4805 6.08037 30.2153 5.8702 28.652C5.66598 27.1331 5.66599 25.1922 5.66602 22.7419L5.66602 22.6667C5.66602 22.1144 6.11373 21.6667 6.66602 21.6667ZM33.3327 21.6667C33.885 21.6667 34.3327 22.1144 34.3327 22.6667V22.7419C34.3327 25.1922 34.3327 27.1331 34.1285 28.652C33.9183 30.2153 33.4755 31.4805 32.4777 32.4783C31.4799 33.4762 30.2146 33.919 28.6514 34.1292C27.1324 34.3334 25.1916 34.3334 22.7412 34.3333H22.666C22.1137 34.3333 21.666 33.8856 21.666 33.3333C21.666 32.781 22.1137 32.3333 22.666 32.3333C25.2084 32.3333 27.0147 32.3312 28.3849 32.147C29.7263 31.9666 30.4992 31.6284 31.0635 31.0641C31.6278 30.4998 31.966 29.727 32.1463 28.3855C32.3306 27.0153 32.3327 25.2091 32.3327 22.6667C32.3327 22.1144 32.7804 21.6667 33.3327 21.6667Z" fill="black"/>
</svg>
