<svg width="36" height="36" viewBox="0 0 36 36" fill="none" xmlns="http://www.w3.org/2000/svg">
<path fill-rule="evenodd" clip-rule="evenodd" d="M6 18C6 18.4624 6.37483 18.8372 6.83721 18.8372H9.1085C9.50493 23.1011 12.899 26.4951 17.1628 26.8915V29.1628C17.1628 29.6252 17.5376 30 18 30C18.4624 30 18.8372 29.6252 18.8372 29.1628V26.8915C23.101 26.4951 26.4951 23.1011 26.8915 18.8372H29.1628C29.6252 18.8372 30 18.4624 30 18C30 17.5377 29.6252 17.1628 29.1628 17.1628H26.8915C26.4951 12.899 23.101 9.50496 18.8372 9.10853V6.83724C18.8372 6.37486 18.4624 6.00003 18 6.00003C17.5376 6.00003 17.1628 6.37486 17.1628 6.83724V9.10853C12.899 9.50496 9.50493 12.899 9.1085 17.1628H6.83721C6.37483 17.1628 6 17.5377 6 18ZM13.814 18C13.814 15.6881 15.6881 13.814 18 13.814C20.3119 13.814 22.186 15.6881 22.186 18C22.186 20.3119 20.3119 22.1861 18 22.1861C15.6881 22.1861 13.814 20.3119 13.814 18Z" fill="black" fill-opacity="0.4"/>
<path d="M15.4884 18C15.4884 16.6129 16.6129 15.4884 18 15.4884C19.3871 15.4884 20.5116 16.6129 20.5116 18C20.5116 19.3872 19.3871 20.5117 18 20.5117C16.6129 20.5117 15.4884 19.3872 15.4884 18Z" fill="black" fill-opacity="0.4"/>
</svg>
