<svg width="345" height="238" viewBox="0 0 345 238" fill="none" xmlns="http://www.w3.org/2000/svg">
<path d="M28.2206 93.127C4.13853 133.601 36.7456 155.194 57.4689 161.36C58.1556 161.565 58.8576 161.656 59.574 161.656H182.705L220.522 33.5677C201.739 0.836743 167.753 -1.92184 153.107 0.790251C97.3159 8.973 82.1282 57.2016 81.5083 80.2931C57.0164 69.8455 42.9349 77.8529 32.6907 87.5368C30.9549 89.1776 29.4419 91.0744 28.2206 93.127Z" fill="#F8F8F8"/>
<path d="M77.7498 171.792H293.56C319.038 168.63 326.337 150.327 326.802 141.571C329.405 108.282 305.725 97.4804 293.56 96.2406C287.423 50.8636 254.428 42.3088 238.698 43.7036C219.915 10.9726 185.928 8.21404 171.283 10.9261C115.492 19.1089 100.304 67.3375 99.6841 90.429C75.1921 79.9814 61.1107 87.9888 50.8665 97.6727C49.1307 99.3135 47.6177 101.21 46.3964 103.263C22.3143 143.737 54.9214 165.33 75.6447 171.496C76.3314 171.701 77.0334 171.792 77.7498 171.792Z" fill="#EEF2F5"/>
<path d="M209.264 64.6254H167.698C166.671 64.6254 165.839 65.458 165.839 66.4851V101.122C165.839 102.149 165.006 102.982 163.979 102.982H154.258C152.718 102.982 151.845 104.747 152.78 105.971L186.687 150.343C187.428 151.313 188.888 151.317 189.635 150.351L223.961 105.98C224.906 104.757 224.035 102.982 222.49 102.982H212.145C211.1 102.982 210.26 102.122 210.286 101.077L211.123 66.5302C211.148 65.4858 210.309 64.6254 209.264 64.6254Z" fill="#266CA8"/>
<path d="M5.3235 214.01V230.559H2.5857V208.961H4.89762L18.0999 225.844V208.991H20.8377V230.559H18.3433L5.3235 214.01ZM31.629 230.863C30.4324 230.863 29.3475 230.65 28.374 230.224C27.4006 229.778 26.559 229.18 25.8492 228.429C25.1394 227.659 24.5918 226.777 24.2065 225.783C23.8212 224.789 23.6285 223.745 23.6285 222.65C23.6285 221.534 23.8212 220.48 24.2065 219.486C24.5918 218.492 25.1394 217.62 25.8492 216.87C26.559 216.099 27.4006 215.501 28.374 215.075C29.3677 214.629 30.4527 214.406 31.629 214.406C32.8255 214.406 33.9105 214.629 34.8839 215.075C35.8573 215.501 36.699 216.099 37.4088 216.87C38.1388 217.62 38.6965 218.492 39.0819 219.486C39.4672 220.48 39.6598 221.534 39.6598 222.65C39.6598 223.745 39.4672 224.789 39.0819 225.783C38.6965 226.777 38.149 227.659 37.4392 228.429C36.7294 229.18 35.8776 229.778 34.8839 230.224C33.9105 230.65 32.8255 230.863 31.629 230.863ZM26.3663 222.68C26.3663 223.775 26.5995 224.769 27.066 225.661C27.5527 226.553 28.1915 227.263 28.9824 227.791C29.7733 228.298 30.6555 228.551 31.629 228.551C32.6024 228.551 33.4846 228.287 34.2755 227.76C35.0867 227.233 35.7255 226.523 36.192 225.631C36.6787 224.718 36.922 223.714 36.922 222.619C36.922 221.524 36.6787 220.53 36.192 219.638C35.7255 218.746 35.0867 218.036 34.2755 217.509C33.4846 216.981 32.6024 216.718 31.629 216.718C30.6555 216.718 29.7733 216.991 28.9824 217.539C28.1915 218.066 27.5527 218.776 27.066 219.668C26.5995 220.561 26.3663 221.565 26.3663 222.68ZM49.8068 230.559V208.961H64.0738V211.394H52.5446V218.604H62.2486V220.885H52.5446V230.559H49.8068ZM66.5076 230.559V214.68H69.1846V230.559H66.5076ZM66.5076 211.698V208.352H69.1846V211.698H66.5076ZM72.9709 208.352H75.6479V226.452C75.6479 227.324 75.7696 227.862 76.0129 228.064C76.2563 228.267 76.5503 228.369 76.8951 228.369C77.321 228.369 77.7266 228.328 78.1119 228.247C78.4972 228.145 78.8217 228.044 79.0853 227.943L79.5112 230.133C79.0651 230.315 78.5378 230.468 77.9294 230.589C77.321 230.711 76.7836 230.772 76.3171 230.772C75.2828 230.772 74.4615 230.478 73.8531 229.89C73.265 229.301 72.9709 228.48 72.9709 227.426V208.352ZM88.0329 230.863C86.8363 230.863 85.7412 230.65 84.7475 230.224C83.7741 229.778 82.9223 229.18 82.1922 228.429C81.4824 227.659 80.9247 226.777 80.5191 225.783C80.1338 224.789 79.9411 223.735 79.9411 222.619C79.9411 221.118 80.2859 219.75 80.9754 218.512C81.6649 217.275 82.6181 216.282 83.8349 215.531C85.072 214.781 86.4814 214.406 88.0633 214.406C89.6654 214.406 91.0546 214.791 92.2308 215.562C93.4273 216.312 94.3501 217.306 94.999 218.543C95.6683 219.76 96.0029 221.078 96.0029 222.497C96.0029 222.7 95.9928 222.903 95.9725 223.106C95.9725 223.288 95.9623 223.43 95.9421 223.532H82.7702C82.8513 224.566 83.1352 225.489 83.622 226.3C84.129 227.091 84.7779 227.72 85.5688 228.186C86.3598 228.632 87.2115 228.855 88.1241 228.855C89.0976 228.855 90.0102 228.612 90.8619 228.125C91.734 227.638 92.3322 227 92.6567 226.209L94.9686 226.848C94.6239 227.618 94.1067 228.308 93.4172 228.916C92.748 229.524 91.9469 230.001 91.014 230.346C90.1014 230.691 89.1077 230.863 88.0329 230.863ZM82.6789 221.676H93.5085C93.4273 220.642 93.1333 219.729 92.6263 218.938C92.1193 218.147 91.4703 217.529 90.6794 217.083C89.8885 216.637 89.0164 216.413 88.0633 216.413C87.1304 216.413 86.2685 216.637 85.4776 217.083C84.6867 217.529 84.0377 218.147 83.5307 218.938C83.044 219.729 82.7601 220.642 82.6789 221.676ZM103.815 230.863C102.497 230.863 101.26 230.65 100.104 230.224C98.9482 229.778 97.9545 229.119 97.123 228.247L98.1573 226.361C99.0699 227.213 99.9825 227.821 100.895 228.186C101.808 228.551 102.741 228.734 103.694 228.734C104.789 228.734 105.681 228.531 106.371 228.125C107.06 227.699 107.405 227.081 107.405 226.27C107.405 225.681 107.222 225.245 106.857 224.961C106.513 224.678 106.016 224.444 105.367 224.262C104.718 224.059 103.947 223.836 103.055 223.593C101.96 223.268 101.037 222.923 100.287 222.558C99.5363 222.193 98.9685 221.737 98.5831 221.189C98.1978 220.642 98.0052 219.952 98.0052 219.121C98.0052 218.107 98.2688 217.255 98.7961 216.566C99.3234 215.856 100.043 215.318 100.956 214.953C101.889 214.588 102.943 214.406 104.12 214.406C105.296 214.406 106.361 214.588 107.314 214.953C108.267 215.318 109.088 215.856 109.778 216.566L108.561 218.421C107.932 217.772 107.243 217.296 106.492 216.991C105.742 216.667 104.9 216.505 103.967 216.505C103.42 216.505 102.883 216.576 102.355 216.718C101.828 216.839 101.392 217.073 101.047 217.417C100.702 217.742 100.53 218.208 100.53 218.817C100.53 219.324 100.662 219.729 100.925 220.033C101.209 220.317 101.615 220.561 102.142 220.764C102.69 220.966 103.349 221.189 104.12 221.433C105.316 221.778 106.35 222.122 107.222 222.467C108.115 222.812 108.804 223.258 109.291 223.806C109.778 224.353 110.021 225.114 110.021 226.087C110.021 227.588 109.453 228.764 108.318 229.616C107.182 230.447 105.681 230.863 103.815 230.863ZM120.127 230.559V208.961H127.61C129.922 208.961 131.849 209.447 133.39 210.421C134.952 211.374 136.118 212.672 136.888 214.314C137.659 215.937 138.044 217.742 138.044 219.729C138.044 221.919 137.618 223.826 136.767 225.448C135.915 227.071 134.708 228.328 133.147 229.22C131.585 230.113 129.74 230.559 127.61 230.559H120.127ZM135.276 219.729C135.276 218.107 134.972 216.667 134.363 215.41C133.775 214.152 132.913 213.169 131.778 212.459C130.642 211.749 129.253 211.394 127.61 211.394H122.865V228.125H127.61C129.273 228.125 130.673 227.76 131.808 227.03C132.944 226.28 133.806 225.276 134.394 224.018C134.982 222.741 135.276 221.311 135.276 219.729ZM147.804 230.863C146.607 230.863 145.522 230.65 144.549 230.224C143.575 229.778 142.734 229.18 142.024 228.429C141.314 227.659 140.766 226.777 140.381 225.783C139.996 224.789 139.803 223.745 139.803 222.65C139.803 221.534 139.996 220.48 140.381 219.486C140.766 218.492 141.314 217.62 142.024 216.87C142.734 216.099 143.575 215.501 144.549 215.075C145.542 214.629 146.627 214.406 147.804 214.406C149 214.406 150.085 214.629 151.059 215.075C152.032 215.501 152.874 216.099 153.583 216.87C154.314 217.62 154.871 218.492 155.257 219.486C155.642 220.48 155.835 221.534 155.835 222.65C155.835 223.745 155.642 224.789 155.257 225.783C154.871 226.777 154.324 227.659 153.614 228.429C152.904 229.18 152.052 229.778 151.059 230.224C150.085 230.65 149 230.863 147.804 230.863ZM142.541 222.68C142.541 223.775 142.774 224.769 143.241 225.661C143.727 226.553 144.366 227.263 145.157 227.791C145.948 228.298 146.83 228.551 147.804 228.551C148.777 228.551 149.659 228.287 150.45 227.76C151.261 227.233 151.9 226.523 152.367 225.631C152.853 224.718 153.097 223.714 153.097 222.619C153.097 221.524 152.853 220.53 152.367 219.638C151.9 218.746 151.261 218.036 150.45 217.509C149.659 216.981 148.777 216.718 147.804 216.718C146.83 216.718 145.948 216.991 145.157 217.539C144.366 218.066 143.727 218.776 143.241 219.668C142.774 220.561 142.541 221.565 142.541 222.68ZM177.83 214.68H180.416L173.662 230.559H171.32L168.248 223.075L165.206 230.559H162.863L156.11 214.68H158.665L164.141 227.912L166.696 221.402L164.019 214.71H166.362L168.248 219.76L170.134 214.71H172.476L169.829 221.402L172.385 227.912L177.83 214.68ZM196.091 230.559H193.414V221.676C193.414 219.993 193.15 218.766 192.623 217.995C192.116 217.204 191.335 216.809 190.28 216.809C189.55 216.809 188.82 216.991 188.09 217.356C187.38 217.722 186.742 218.218 186.174 218.847C185.626 219.455 185.231 220.165 184.987 220.976V230.559H182.31V214.68H184.744V218.087C185.17 217.336 185.717 216.687 186.387 216.14C187.056 215.592 187.816 215.166 188.668 214.862C189.52 214.558 190.412 214.406 191.345 214.406C192.258 214.406 193.018 214.578 193.627 214.923C194.255 215.247 194.742 215.714 195.087 216.322C195.452 216.91 195.705 217.61 195.847 218.421C196.01 219.232 196.091 220.115 196.091 221.068V230.559ZM199.706 208.352H202.383V226.452C202.383 227.324 202.505 227.862 202.748 228.064C202.991 228.267 203.285 228.369 203.63 228.369C204.056 228.369 204.462 228.328 204.847 228.247C205.232 228.145 205.557 228.044 205.82 227.943L206.246 230.133C205.8 230.315 205.273 230.468 204.664 230.589C204.056 230.711 203.519 230.772 203.052 230.772C202.018 230.772 201.196 230.478 200.588 229.89C200 229.301 199.706 228.48 199.706 227.426V208.352ZM214.677 230.863C213.48 230.863 212.395 230.65 211.422 230.224C210.448 229.778 209.607 229.18 208.897 228.429C208.187 227.659 207.639 226.777 207.254 225.783C206.869 224.789 206.676 223.745 206.676 222.65C206.676 221.534 206.869 220.48 207.254 219.486C207.639 218.492 208.187 217.62 208.897 216.87C209.607 216.099 210.448 215.501 211.422 215.075C212.415 214.629 213.5 214.406 214.677 214.406C215.873 214.406 216.958 214.629 217.931 215.075C218.905 215.501 219.747 216.099 220.456 216.87C221.186 217.62 221.744 218.492 222.129 219.486C222.515 220.48 222.707 221.534 222.707 222.65C222.707 223.745 222.515 224.789 222.129 225.783C221.744 226.777 221.197 227.659 220.487 228.429C219.777 229.18 218.925 229.778 217.931 230.224C216.958 230.65 215.873 230.863 214.677 230.863ZM209.414 222.68C209.414 223.775 209.647 224.769 210.114 225.661C210.6 226.553 211.239 227.263 212.03 227.791C212.821 228.298 213.703 228.551 214.677 228.551C215.65 228.551 216.532 228.287 217.323 227.76C218.134 227.233 218.773 226.523 219.24 225.631C219.726 224.718 219.97 223.714 219.97 222.619C219.97 221.524 219.726 220.53 219.24 219.638C218.773 218.746 218.134 218.036 217.323 217.509C216.532 216.981 215.65 216.718 214.677 216.718C213.703 216.718 212.821 216.991 212.03 217.539C211.239 218.066 210.6 218.776 210.114 219.668C209.647 220.561 209.414 221.565 209.414 222.68ZM224.096 225.965C224.096 224.951 224.38 224.079 224.947 223.349C225.535 222.599 226.337 222.021 227.351 221.615C228.365 221.21 229.541 221.007 230.879 221.007C231.589 221.007 232.339 221.068 233.13 221.189C233.921 221.291 234.621 221.453 235.229 221.676V220.52C235.229 219.303 234.864 218.35 234.134 217.661C233.404 216.951 232.37 216.596 231.031 216.596C230.159 216.596 229.318 216.758 228.506 217.083C227.716 217.387 226.874 217.833 225.982 218.421L225.008 216.535C226.042 215.825 227.077 215.298 228.111 214.953C229.145 214.588 230.22 214.406 231.336 214.406C233.364 214.406 234.966 214.974 236.142 216.109C237.318 217.225 237.906 218.786 237.906 220.794V227.517C237.906 227.841 237.967 228.085 238.089 228.247C238.231 228.389 238.454 228.47 238.758 228.49V230.559C238.494 230.599 238.261 230.63 238.058 230.65C237.876 230.67 237.724 230.68 237.602 230.68C236.973 230.68 236.497 230.508 236.172 230.163C235.868 229.819 235.696 229.454 235.655 229.068L235.594 228.064C234.905 228.957 234.002 229.646 232.887 230.133C231.772 230.62 230.666 230.863 229.571 230.863C228.517 230.863 227.574 230.65 226.742 230.224C225.911 229.778 225.262 229.19 224.795 228.46C224.329 227.709 224.096 226.878 224.096 225.965ZM234.438 227.091C234.682 226.807 234.874 226.523 235.016 226.239C235.158 225.935 235.229 225.681 235.229 225.479V223.501C234.601 223.258 233.942 223.075 233.252 222.954C232.562 222.812 231.883 222.741 231.214 222.741C229.855 222.741 228.75 223.015 227.898 223.562C227.067 224.089 226.651 224.82 226.651 225.752C226.651 226.259 226.783 226.756 227.046 227.243C227.33 227.709 227.736 228.095 228.263 228.399C228.811 228.703 229.48 228.855 230.271 228.855C231.102 228.855 231.893 228.693 232.644 228.369C233.394 228.024 233.992 227.598 234.438 227.091ZM240.544 222.65C240.544 221.149 240.848 219.78 241.457 218.543C242.085 217.286 242.937 216.282 244.012 215.531C245.107 214.781 246.354 214.406 247.754 214.406C249.031 214.406 250.177 214.74 251.191 215.41C252.205 216.079 252.996 216.89 253.564 217.843V208.352H256.241V227.517C256.241 227.841 256.302 228.085 256.423 228.247C256.565 228.389 256.788 228.47 257.092 228.49V230.559C256.585 230.64 256.19 230.68 255.906 230.68C255.379 230.68 254.912 230.498 254.507 230.133C254.121 229.768 253.929 229.362 253.929 228.916V227.578C253.3 228.592 252.459 229.393 251.404 229.981C250.349 230.569 249.254 230.863 248.119 230.863C247.023 230.863 246.009 230.65 245.077 230.224C244.164 229.778 243.363 229.17 242.673 228.399C242.004 227.628 241.477 226.756 241.092 225.783C240.727 224.789 240.544 223.745 240.544 222.65ZM253.564 224.992V220.429C253.32 219.739 252.925 219.121 252.377 218.573C251.83 218.005 251.211 217.559 250.522 217.235C249.853 216.89 249.183 216.718 248.514 216.718C247.723 216.718 247.003 216.89 246.354 217.235C245.726 217.559 245.178 218.005 244.712 218.573C244.265 219.121 243.921 219.75 243.677 220.459C243.434 221.169 243.312 221.909 243.312 222.68C243.312 223.471 243.444 224.221 243.708 224.931C243.992 225.641 244.377 226.27 244.864 226.817C245.371 227.365 245.949 227.791 246.598 228.095C247.267 228.399 247.987 228.551 248.757 228.551C249.244 228.551 249.741 228.46 250.248 228.277C250.775 228.095 251.272 227.841 251.739 227.517C252.205 227.192 252.6 226.817 252.925 226.391C253.249 225.945 253.462 225.479 253.564 224.992ZM267.128 230.863C265.932 230.863 264.837 230.65 263.843 230.224C262.869 229.778 262.018 229.18 261.288 228.429C260.578 227.659 260.02 226.777 259.615 225.783C259.229 224.789 259.037 223.735 259.037 222.619C259.037 221.118 259.381 219.75 260.071 218.512C260.76 217.275 261.713 216.282 262.93 215.531C264.167 214.781 265.577 214.406 267.159 214.406C268.761 214.406 270.15 214.791 271.326 215.562C272.523 216.312 273.445 217.306 274.094 218.543C274.764 219.76 275.098 221.078 275.098 222.497C275.098 222.7 275.088 222.903 275.068 223.106C275.068 223.288 275.058 223.43 275.037 223.532H261.866C261.947 224.566 262.231 225.489 262.717 226.3C263.224 227.091 263.873 227.72 264.664 228.186C265.455 228.632 266.307 228.855 267.22 228.855C268.193 228.855 269.106 228.612 269.957 228.125C270.829 227.638 271.428 227 271.752 226.209L274.064 226.848C273.719 227.618 273.202 228.308 272.513 228.916C271.843 229.524 271.042 230.001 270.109 230.346C269.197 230.691 268.203 230.863 267.128 230.863ZM261.774 221.676H272.604C272.523 220.642 272.229 219.729 271.722 218.938C271.215 218.147 270.566 217.529 269.775 217.083C268.984 216.637 268.112 216.413 267.159 216.413C266.226 216.413 265.364 216.637 264.573 217.083C263.782 217.529 263.133 218.147 262.626 218.938C262.139 219.729 261.855 220.642 261.774 221.676ZM276.431 222.65C276.431 221.149 276.735 219.78 277.344 218.543C277.973 217.286 278.824 216.282 279.899 215.531C280.994 214.781 282.242 214.406 283.641 214.406C284.918 214.406 286.064 214.74 287.078 215.41C288.092 216.079 288.883 216.89 289.451 217.843V208.352H292.128V227.517C292.128 227.841 292.189 228.085 292.311 228.247C292.452 228.389 292.676 228.47 292.98 228.49V230.559C292.473 230.64 292.077 230.68 291.793 230.68C291.266 230.68 290.8 230.498 290.394 230.133C290.009 229.768 289.816 229.362 289.816 228.916V227.578C289.187 228.592 288.346 229.393 287.291 229.981C286.237 230.569 285.142 230.863 284.006 230.863C282.911 230.863 281.897 230.65 280.964 230.224C280.051 229.778 279.25 229.17 278.561 228.399C277.891 227.628 277.364 226.756 276.979 225.783C276.614 224.789 276.431 223.745 276.431 222.65ZM289.451 224.992V220.429C289.208 219.739 288.812 219.121 288.265 218.573C287.717 218.005 287.099 217.559 286.409 217.235C285.74 216.89 285.071 216.718 284.401 216.718C283.61 216.718 282.89 216.89 282.242 217.235C281.613 217.559 281.065 218.005 280.599 218.573C280.153 219.121 279.808 219.75 279.565 220.459C279.321 221.169 279.2 221.909 279.2 222.68C279.2 223.471 279.331 224.221 279.595 224.931C279.879 225.641 280.264 226.27 280.751 226.817C281.258 227.365 281.836 227.791 282.485 228.095C283.154 228.399 283.874 228.551 284.645 228.551C285.131 228.551 285.628 228.46 286.135 228.277C286.663 228.095 287.159 227.841 287.626 227.517C288.092 227.192 288.488 226.817 288.812 226.391C289.137 225.945 289.35 225.479 289.451 224.992ZM303.222 208.961L309.763 220.216L316.364 208.961H319.345L311.131 222.68V230.559H308.394V222.619L300.211 208.961H303.222ZM325.564 230.863C324.368 230.863 323.273 230.65 322.279 230.224C321.306 229.778 320.454 229.18 319.724 228.429C319.014 227.659 318.456 226.777 318.051 225.783C317.665 224.789 317.473 223.735 317.473 222.619C317.473 221.118 317.817 219.75 318.507 218.512C319.196 217.275 320.15 216.282 321.366 215.531C322.603 214.781 324.013 214.406 325.595 214.406C327.197 214.406 328.586 214.791 329.762 215.562C330.959 216.312 331.882 217.306 332.531 218.543C333.2 219.76 333.534 221.078 333.534 222.497C333.534 222.7 333.524 222.903 333.504 223.106C333.504 223.288 333.494 223.43 333.474 223.532H320.302C320.383 224.566 320.667 225.489 321.153 226.3C321.66 227.091 322.309 227.72 323.1 228.186C323.891 228.632 324.743 228.855 325.656 228.855C326.629 228.855 327.542 228.612 328.393 228.125C329.265 227.638 329.864 227 330.188 226.209L332.5 226.848C332.155 227.618 331.638 228.308 330.949 228.916C330.279 229.524 329.478 230.001 328.546 230.346C327.633 230.691 326.639 230.863 325.564 230.863ZM320.21 221.676H331.04C330.959 220.642 330.665 219.729 330.158 218.938C329.651 218.147 329.002 217.529 328.211 217.083C327.42 216.637 326.548 216.413 325.595 216.413C324.662 216.413 323.8 216.637 323.009 217.083C322.218 217.529 321.569 218.147 321.062 218.938C320.575 219.729 320.292 220.642 320.21 221.676ZM343.967 229.768C343.743 229.869 343.439 230.001 343.054 230.163C342.669 230.326 342.222 230.468 341.715 230.589C341.208 230.711 340.671 230.772 340.103 230.772C339.454 230.772 338.856 230.66 338.308 230.437C337.761 230.194 337.325 229.829 337 229.342C336.676 228.835 336.514 228.206 336.514 227.456V216.779H334.354V214.68H336.514V209.386H339.191V214.68H342.75V216.779H339.191V226.635C339.231 227.202 339.424 227.628 339.769 227.912C340.113 228.176 340.519 228.308 340.985 228.308C341.513 228.308 341.999 228.216 342.446 228.034C342.892 227.851 343.186 227.72 343.328 227.638L343.967 229.768Z" fill="black"/>
</svg>
