<svg width="196" height="130" viewBox="0 0 196 130" fill="none" xmlns="http://www.w3.org/2000/svg">
<path d="M65.5 92.8571L65.5 69.6428L130.5 106.786L130.5 130L65.5 92.8571Z" fill="#266CA8" fill-opacity="0.4"/>
<path d="M130.5 60.3571L130.5 37.1428L195.5 74.2857L195.5 97.5L130.5 60.3571Z" fill="#266CA8" fill-opacity="0.4"/>
<path d="M130.5 60.3571V37.1428L65.5 69.6428V92.8571L130.5 60.3571Z" fill="#266CA8"/>
<path d="M195.5 97.5V74.2857L130.5 106.786V130L195.5 97.5Z" fill="#266CA8"/>
<path d="M0.49999 55.7143L0.499992 32.5L65.5 69.6429L65.5 92.8571L0.49999 55.7143Z" fill="#266CA8" fill-opacity="0.4"/>
<path d="M65.5 23.2143L65.5 -5.68248e-06L130.5 37.1429L130.5 60.3571L65.5 23.2143Z" fill="#266CA8" fill-opacity="0.4"/>
<path d="M65.5 23.2143V0L0.5 32.5V55.7143L65.5 23.2143Z" fill="#266CA8"/>
<path d="M130.5 60.3571V37.1428L65.5 69.6428V92.8571L130.5 60.3571Z" fill="#266CA8"/>
</svg>
