<svg width="27" height="27" viewBox="0 0 27 27" fill="none" xmlns="http://www.w3.org/2000/svg">
<path fill-rule="evenodd" clip-rule="evenodd" d="M14.7646 7.32245C14.7646 5.71904 16.0703 4.41922 17.681 4.41922C19.2917 4.41922 20.5975 5.71904 20.5975 7.32245C20.5975 8.92585 19.2917 10.2257 17.681 10.2257C16.8677 10.2257 16.1327 9.89409 15.6043 9.36063L11.567 12.1095C11.6043 12.2949 11.6239 12.4865 11.6239 12.6822C11.6239 13.0699 11.5473 13.4403 11.4084 13.779L15.8353 16.6875C16.3377 16.2784 16.9806 16.0321 17.681 16.0321C19.2917 16.0321 20.5975 17.3319 20.5975 18.9354C20.5975 20.5388 19.2917 21.8386 17.681 21.8386C16.0703 21.8386 14.7646 20.5388 14.7646 18.9354C14.7646 18.5154 14.8545 18.1156 15.0161 17.7547L10.6249 14.8697C10.1127 15.3149 9.44176 15.5855 8.70744 15.5855C7.09674 15.5855 5.79102 14.2857 5.79102 12.6822C5.79102 11.0788 7.09674 9.77902 8.70744 9.77902C9.63364 9.77902 10.4581 10.2088 10.992 10.8776L14.9048 8.21353C14.8137 7.93235 14.7646 7.63274 14.7646 7.32245Z" fill="#266CA8"/>
</svg>
