<svg width="66" height="66" viewBox="0 0 66 66" fill="none" xmlns="http://www.w3.org/2000/svg">
<path d="M34.1893 12.032C33.8782 11.6917 33.4383 11.4978 32.9771 11.4978C32.5159 11.4978 32.076 11.6917 31.7649 12.032L23.0046 21.6135C22.3925 22.283 22.439 23.322 23.1085 23.9341C23.778 24.5462 24.817 24.4997 25.4291 23.8302L31.3346 17.3711V41.6111C31.3346 42.5183 32.0699 43.2537 32.9771 43.2537C33.8843 43.2537 34.6196 42.5183 34.6196 41.6111V17.3711L40.5251 23.8302C41.1372 24.4997 42.1762 24.5462 42.8457 23.9341C43.5152 23.322 43.5617 22.283 42.9496 21.6135L34.1893 12.032Z" fill="#266CA8"/>
<path d="M14.9091 39.421C14.9091 38.5139 14.1737 37.7785 13.2666 37.7785C12.3594 37.7785 11.624 38.5139 11.624 39.421V39.5412C11.624 42.5363 11.6239 44.9505 11.8792 46.8492C12.1443 48.8205 12.7112 50.4803 14.0295 51.7985C15.3477 53.1167 17.0075 53.6837 18.9788 53.9487C20.8775 54.204 23.2916 54.204 26.2868 54.2039H39.6674C42.6625 54.204 45.0767 54.204 46.9754 53.9487C48.9467 53.6837 50.6065 53.1167 51.9247 51.7985C53.243 50.4803 53.8099 48.8205 54.075 46.8492C54.3302 44.9505 54.3302 42.5363 54.3302 39.5412V39.421C54.3302 38.5139 53.5948 37.7785 52.6876 37.7785C51.7805 37.7785 51.0451 38.5139 51.0451 39.421C51.0451 42.5647 51.0416 44.7572 50.8192 46.4114C50.6031 48.0185 50.2079 48.8695 49.6018 49.4756C48.9957 50.0817 48.1447 50.4769 46.5377 50.693C44.8834 50.9154 42.6909 50.9189 39.5473 50.9189H26.4069C23.2633 50.9189 21.0708 50.9154 19.4165 50.693C17.8095 50.4769 16.9585 50.0817 16.3524 49.4756C15.7463 48.8695 15.3511 48.0185 15.135 46.4114C14.9126 44.7572 14.9091 42.5647 14.9091 39.421Z" fill="#266CA8"/>
</svg>
