<svg width="36" height="36" viewBox="0 0 36 36" fill="none" xmlns="http://www.w3.org/2000/svg">
<rect width="35.75" height="35.75" rx="17.875" fill="white" fill-opacity="0.1"/>
<path fill-rule="evenodd" clip-rule="evenodd" d="M17.8752 8.4729C17.505 8.4729 17.2049 8.77301 17.2049 9.14321V18.9499L15.7029 17.1976C15.462 16.9165 15.0388 16.884 14.7578 17.1249C14.4767 17.3658 14.4441 17.789 14.6851 18.0701L17.3663 21.1982C17.4937 21.3468 17.6796 21.4323 17.8752 21.4323C18.0709 21.4323 18.2568 21.3468 18.3842 21.1982L21.0654 18.0701C21.3064 17.789 21.2738 17.3658 20.9927 17.1249C20.7116 16.884 20.2885 16.9165 20.0476 17.1976L18.5456 18.9499L18.5456 9.14321C18.5456 8.77301 18.2454 8.4729 17.8752 8.4729Z" fill="#A8E543"/>
<path d="M19.8861 15.3995V15.7376C20.5418 15.5065 21.2994 15.6221 21.8652 16.107C22.7084 16.8298 22.8061 18.0993 22.0833 18.9425L19.402 22.0707C19.02 22.5164 18.4622 22.7729 17.8752 22.7729C17.2882 22.7729 16.7304 22.5164 16.3484 22.0707L13.6671 18.9425C12.9444 18.0993 13.042 16.8298 13.8853 16.107C14.451 15.6221 15.2086 15.5065 15.8643 15.7376V15.3995H14.3002C11.7723 15.3995 10.5084 15.3995 9.72306 16.1848C8.93774 16.9701 8.93774 18.2341 8.93774 20.762V21.6557C8.93774 24.1836 8.93774 25.4476 9.72306 26.2329C10.5084 27.0182 11.7723 27.0182 14.3002 27.0182H21.4502C23.9781 27.0182 25.2421 27.0182 26.0274 26.2329C26.8127 25.4476 26.8127 24.1836 26.8127 21.6557V20.762C26.8127 18.2341 26.8127 16.9701 26.0274 16.1848C25.2421 15.3995 23.9782 15.3995 21.4502 15.3995H19.8861Z" fill="#A8E543"/>
</svg>
