<svg width="36" height="36" viewBox="0 0 36 36" fill="none" xmlns="http://www.w3.org/2000/svg">
<rect width="35.75" height="35.75" rx="17.875" fill="white" fill-opacity="0.1"/>
<path d="M21.0031 13.8532C21.0031 15.5808 19.6026 16.9813 17.875 16.9813C16.1473 16.9813 14.7468 15.5808 14.7468 13.8532C14.7468 12.1256 16.1473 10.7251 17.875 10.7251C19.6026 10.7251 21.0031 12.1256 21.0031 13.8532Z" fill="#A8E543"/>
<path d="M23.2375 21.8969C23.2375 23.6245 20.8366 25.025 17.875 25.025C14.9133 25.025 12.5125 23.6245 12.5125 21.8969C12.5125 20.1693 14.9133 18.7688 17.875 18.7688C20.8366 18.7688 23.2375 20.1693 23.2375 21.8969Z" fill="#A8E543"/>
<path d="M13.5153 11.6187C13.6739 11.6187 13.8288 11.6342 13.9783 11.6638C13.614 12.3108 13.4062 13.0577 13.4062 13.853C13.4062 14.629 13.604 15.3588 13.952 15.9948C13.8106 16.0211 13.6646 16.0349 13.5153 16.0349C12.2512 16.0349 11.2264 15.0463 11.2264 13.8268C11.2264 12.6073 12.2512 11.6187 13.5153 11.6187Z" fill="#A8E543"/>
<path d="M12.0186 24.1186C11.511 23.5119 11.1719 22.7673 11.1719 21.8968C11.1719 21.0529 11.4906 20.3273 11.9725 19.731C10.2702 19.863 8.9375 20.7941 8.9375 21.923C8.9375 23.0626 10.2936 24.0005 12.0186 24.1186Z" fill="#A8E543"/>
<path d="M22.3438 13.853C22.3438 14.629 22.146 15.3588 21.7981 15.9948C21.9394 16.0211 22.0854 16.0349 22.2347 16.0349C23.4988 16.0349 24.5236 15.0463 24.5236 13.8268C24.5236 12.6073 23.4988 11.6187 22.2347 11.6187C22.0761 11.6187 21.9212 11.6342 21.7717 11.6638C22.136 12.3108 22.3438 13.0577 22.3438 13.853Z" fill="#A8E543"/>
<path d="M23.7315 24.1186C25.4564 24.0005 26.8125 23.0626 26.8125 21.923C26.8125 20.7941 25.4799 19.863 23.7775 19.731C24.2595 20.3273 24.5782 21.0529 24.5782 21.8968C24.5782 22.7673 24.239 23.5119 23.7315 24.1186Z" fill="#A8E543"/>
</svg>
